# WaveFront *.obj file (generated by Autodesk ATF)

mtllib Maze.mtl

g Body2

v -0.693771 3.703526 0.000000
v -0.693771 3.610938 0.000000
v -0.693771 3.610938 0.474983
v -0.693771 3.703526 0.474983
v -0.694411 3.703526 0.000000
v -0.694411 2.870233 0.000000
v -0.786999 2.870233 0.000000
v -0.786999 3.610938 0.000000
v -2.916527 3.610938 0.000000
v -2.916527 1.388822 0.000000
v -3.009115 1.388822 0.000000
v -3.009115 3.610938 0.000000
v -3.657232 3.610938 0.000000
v -3.657232 0.740705 0.000000
v -2.268410 0.740705 0.000000
v -2.268410 2.222116 0.000000
v -1.527705 2.222116 0.000000
v -1.527705 2.870233 0.000000
v -2.268410 2.870233 0.000000
v -2.268410 2.962821 0.000000
v -1.435116 2.962821 0.000000
v -1.435116 2.222116 0.000000
v -0.694411 2.222116 0.000000
v -0.694411 2.129528 0.000000
v -2.175822 2.129528 0.000000
v -2.175822 -0.000000 0.000000
v -1.527705 -0.000000 0.000000
v -1.527705 1.481411 0.000000
v -0.046294 1.481411 0.000000
v -0.046294 2.222116 0.000000
v 0.046294 2.222116 0.000000
v 0.046294 1.481411 0.000000
v 1.435116 1.481411 0.000000
v 1.435116 2.129528 0.000000
v 0.694411 2.129528 0.000000
v 0.694411 2.870233 0.000000
v -0.046294 2.870233 0.000000
v -0.046294 2.962821 0.000000
v 0.786999 2.962821 0.000000
v 0.786999 2.222116 0.000000
v 1.527705 2.222116 0.000000
v 1.527705 1.481411 0.000000
v 3.009115 1.481411 0.000000
v 3.009115 1.388822 0.000000
v 0.786999 1.388822 0.000000
v 0.786999 -0.740705 0.000000
v 1.435116 -0.740705 0.000000
v 1.435116 0.740705 0.000000
v 1.527705 0.740705 0.000000
v 1.527705 -0.740705 0.000000
v 3.009115 -0.740705 0.000000
v 3.009115 -0.833293 0.000000
v 2.268410 -0.833293 0.000000
v 2.268410 -2.314704 0.000000
v 2.175822 -2.314704 0.000000
v 2.175822 -0.833293 0.000000
v 0.786999 -0.833293 0.000000
v 0.786999 -2.222116 0.000000
v 1.435116 -2.222116 0.000000
v 1.435116 -1.481411 0.000000
v 1.527705 -1.481411 0.000000
v 1.527705 -2.314704 0.000000
v 0.786999 -2.314704 0.000000
v 0.786999 -3.055409 0.000000
v 0.694411 -3.055409 0.000000
v 0.694411 -2.314704 0.000000
v -3.009115 -2.314704 0.000000
v -3.009115 -2.222116 0.000000
v -2.268410 -2.222116 0.000000
v -2.268410 -0.833293 0.000000
v -3.009115 -0.833293 0.000000
v -3.009115 -0.000000 0.000000
v -2.916527 -0.000000 0.000000
v -2.916527 -0.740705 0.000000
v -2.175822 -0.740705 0.000000
v -2.175822 -2.222116 0.000000
v 0.694411 -2.222116 0.000000
v 0.694411 -0.833293 0.000000
v -0.046294 -0.833293 0.000000
v -0.046294 -0.740705 0.000000
v 0.694411 -0.740705 0.000000
v 0.694411 1.388822 0.000000
v -1.435116 1.388822 0.000000
v -1.435116 -0.740705 0.000000
v -0.694411 -0.740705 0.000000
v -0.694411 -1.481411 0.000000
v 0.046294 -1.481411 0.000000
v 0.046294 -1.573999 0.000000
v -1.527705 -1.573999 0.000000
v -1.527705 -1.481411 0.000000
v -0.786999 -1.481411 0.000000
v -0.786999 -0.833293 0.000000
v -1.527705 -0.833293 0.000000
v -1.527705 -0.092588 0.000000
v -2.268410 -0.092588 0.000000
v -2.268410 0.648117 0.000000
v -3.657232 0.648117 0.000000
v -3.657232 -1.481411 0.000000
v -2.916527 -1.481411 0.000000
v -2.916527 -1.573999 0.000000
v -3.657232 -1.573999 0.000000
v -3.657232 -2.962821 0.000000
v 0.046294 -2.962821 0.000000
v 0.046294 -3.055409 0.000000
v -3.657232 -3.055409 0.000000
v -3.657232 -3.703526 0.000000
v 1.435116 -3.703526 0.000000
v 1.435116 -2.962821 0.000000
v 2.916527 -2.962821 0.000000
v 2.916527 -2.222116 0.000000
v 3.009115 -2.222116 0.000000
v 3.009115 -3.055409 0.000000
v 1.527705 -3.055409 0.000000
v 1.527705 -3.703526 0.000000
v 3.657232 -3.703526 0.000000
v 3.657232 -1.573999 0.000000
v 2.916527 -1.573999 0.000000
v 2.916527 -1.481411 0.000000
v 3.657232 -1.481411 0.000000
v 3.657232 -0.092588 0.000000
v 2.916527 -0.092588 0.000000
v 2.916527 -0.000000 0.000000
v 3.657232 -0.000000 0.000000
v 3.657232 0.648117 0.000000
v 2.268410 0.648117 0.000000
v 2.268410 -0.092588 0.000000
v 2.175822 -0.092588 0.000000
v 2.175822 0.740705 0.000000
v 3.657232 0.740705 0.000000
v 3.657232 2.129528 0.000000
v 2.175822 2.129528 0.000000
v 2.175822 2.962821 0.000000
v 2.268410 2.962821 0.000000
v 2.268410 2.222116 0.000000
v 3.657232 2.222116 0.000000
v 3.657232 3.610938 0.000000
v 3.009115 3.610938 0.000000
v 3.009115 2.870233 0.000000
v 2.916527 2.870233 0.000000
v 2.916527 3.610938 0.000000
v 1.527705 3.610938 0.000000
v 1.527705 2.870233 0.000000
v 1.435116 2.870233 0.000000
v 1.435116 3.610938 0.000000
v -0.694411 3.703526 0.474983
v -0.694411 2.870233 0.474983
v -0.786999 2.870233 0.474983
v -0.786999 3.610938 0.474983
v -2.916527 3.610938 0.474983
v -2.916527 1.388822 0.474983
v -3.009115 1.388822 0.474983
v -3.009115 3.610938 0.474983
v -3.657232 3.610938 0.474983
v -3.657232 0.740705 0.474983
v -2.268410 0.740705 0.474983
v -2.268410 2.222116 0.474983
v -1.527705 2.222116 0.474983
v -1.527705 2.870233 0.474983
v -2.268410 2.870233 0.474983
v -2.268410 2.962821 0.474983
v -1.435116 2.962821 0.474983
v -1.435116 2.222116 0.474983
v -0.694411 2.222116 0.474983
v -0.694411 2.129528 0.474983
v -2.175822 2.129528 0.474983
v -2.175822 -0.000000 0.474983
v -1.527705 -0.000000 0.474983
v -1.527705 1.481411 0.474983
v -0.046294 1.481411 0.474983
v -0.046294 2.222116 0.474983
v 0.046294 2.222116 0.474983
v 0.046294 1.481411 0.474983
v 1.435116 1.481411 0.474983
v 1.435116 2.129528 0.474983
v 0.694411 2.129528 0.474983
v 0.694411 2.870233 0.474983
v -0.046294 2.870233 0.474983
v -0.046294 2.962821 0.474983
v 0.786999 2.962821 0.474983
v 0.786999 2.222116 0.474983
v 1.527705 2.222116 0.474983
v 1.527705 1.481411 0.474983
v 3.009115 1.481411 0.474983
v 3.009115 1.388822 0.474983
v 0.786999 1.388822 0.474983
v 0.786999 -0.740705 0.474983
v 1.435116 -0.740705 0.474983
v 1.435116 0.740705 0.474983
v 1.527705 0.740705 0.474983
v 1.527705 -0.740705 0.474983
v 3.009115 -0.740705 0.474983
v 3.009115 -0.833293 0.474983
v 2.268410 -0.833293 0.474983
v 2.268410 -2.314704 0.474983
v 2.175822 -2.314704 0.474983
v 2.175822 -0.833293 0.474983
v 0.786999 -0.833293 0.474983
v 0.786999 -2.222116 0.474983
v 1.435116 -2.222116 0.474983
v 1.435116 -1.481411 0.474983
v 1.527705 -1.481411 0.474983
v 1.527705 -2.314704 0.474983
v 0.786999 -2.314704 0.474983
v 0.786999 -3.055409 0.474983
v 0.694411 -3.055409 0.474983
v 0.694411 -2.314704 0.474983
v -3.009115 -2.314704 0.474983
v -3.009115 -2.222116 0.474983
v -2.268410 -2.222116 0.474983
v -2.268410 -0.833293 0.474983
v -3.009115 -0.833293 0.474983
v -3.009115 -0.000000 0.474983
v -2.916527 -0.000000 0.474983
v -2.916527 -0.740705 0.474983
v -2.175822 -0.740705 0.474983
v -2.175822 -2.222116 0.474983
v 0.694411 -2.222116 0.474983
v 0.694411 -0.833293 0.474983
v -0.046294 -0.833293 0.474983
v -0.046294 -0.740705 0.474983
v 0.694411 -0.740705 0.474983
v 0.694411 1.388822 0.474983
v -1.435116 1.388822 0.474983
v -1.435116 -0.740705 0.474983
v -0.694411 -0.740705 0.474983
v -0.694411 -1.481411 0.474983
v 0.046294 -1.481411 0.474983
v 0.046294 -1.573999 0.474983
v -1.527705 -1.573999 0.474983
v -1.527705 -1.481411 0.474983
v -0.786999 -1.481411 0.474983
v -0.786999 -0.833293 0.474983
v -1.527705 -0.833293 0.474983
v -1.527705 -0.092588 0.474983
v -2.268410 -0.092588 0.474983
v -2.268410 0.648117 0.474983
v -3.657232 0.648117 0.474983
v -3.657232 -1.481411 0.474983
v -2.916527 -1.481411 0.474983
v -2.916527 -1.573999 0.474983
v -3.657232 -1.573999 0.474983
v -3.657232 -2.962821 0.474983
v 0.046294 -2.962821 0.474983
v 0.046294 -3.055409 0.474983
v -3.657232 -3.055409 0.474983
v -3.657232 -3.703526 0.474983
v 1.435116 -3.703526 0.474983
v 1.435116 -2.962821 0.474983
v 2.916527 -2.962821 0.474983
v 2.916527 -2.222116 0.474983
v 3.009115 -2.222116 0.474983
v 3.009115 -3.055409 0.474983
v 1.527705 -3.055409 0.474983
v 1.527705 -3.703526 0.474983
v 3.657232 -3.703526 0.474983
v 3.657232 -1.573999 0.474983
v 2.916527 -1.573999 0.474983
v 2.916527 -1.481411 0.474983
v 3.657232 -1.481411 0.474983
v 3.657232 -0.092588 0.474983
v 2.916527 -0.092588 0.474983
v 2.916527 -0.000000 0.474983
v 3.657232 -0.000000 0.474983
v 3.657232 0.648117 0.474983
v 2.268410 0.648117 0.474983
v 2.268410 -0.092588 0.474983
v 2.175822 -0.092588 0.474983
v 2.175822 0.740705 0.474983
v 3.657232 0.740705 0.474983
v 3.657232 2.129528 0.474983
v 2.175822 2.129528 0.474983
v 2.175822 2.962821 0.474983
v 2.268410 2.962821 0.474983
v 2.268410 2.222116 0.474983
v 3.657232 2.222116 0.474983
v 3.657232 3.610938 0.474983
v 3.009115 3.610938 0.474983
v 3.009115 2.870233 0.474983
v 2.916527 2.870233 0.474983
v 2.916527 3.610938 0.474983
v 1.527705 3.610938 0.474983
v 1.527705 2.870233 0.474983
v 1.435116 2.870233 0.474983
v 1.435116 3.610938 0.474983
v 3.749820 -3.796115 -0.024999
v 3.749820 3.703526 -0.024999
v 3.749820 3.703526 0.474983
v 3.749820 -3.796115 0.474983
v -3.749820 -3.796115 -0.024999
v -3.749820 -3.796115 0.474983
v -3.749820 3.703526 -0.024999
v -3.749820 3.703526 0.474983
vt 0.024999 -0.092588 0.000000
vt 0.499982 -0.092588 0.000000
vt 0.024999 0.000000 0.000000
vt 0.499982 0.000000 0.000000
vt -0.693771 3.703526 0.000000
vt -0.694411 3.703526 0.000000
vt -0.693771 3.610938 0.000000
vt -0.694411 2.870233 0.000000
vt -0.046294 2.962821 0.000000
vt -0.046294 2.870233 0.000000
vt -0.046294 2.222116 0.000000
vt 0.046294 2.222116 0.000000
vt -0.694411 2.222116 0.000000
vt -0.786999 2.870233 0.000000
vt -1.435116 2.222116 0.000000
vt -1.435116 2.962821 0.000000
vt -0.786999 3.610938 0.000000
vt -2.916527 3.610938 0.000000
vt -2.916527 1.388822 0.000000
vt -2.268410 2.222116 0.000000
vt -2.268410 2.870233 0.000000
vt -2.268410 2.962821 0.000000
vt -2.268410 0.740705 0.000000
vt -3.009115 1.388822 0.000000
vt -3.657232 0.740705 0.000000
vt -3.657232 3.610938 0.000000
vt -3.009115 3.610938 0.000000
vt -1.527705 2.222116 0.000000
vt -1.527705 2.870233 0.000000
vt -0.694411 2.129528 0.000000
vt -0.046294 1.481411 0.000000
vt -1.527705 1.481411 0.000000
vt -2.175822 2.129528 0.000000
vt -2.175822 0.000000 0.000000
vt -1.527705 0.000000 0.000000
vt 0.046294 1.481411 0.000000
vt 0.694411 2.129528 0.000000
vt 0.694411 2.870233 0.000000
vt 1.435116 1.481411 0.000000
vt 1.435116 2.129528 0.000000
vt 0.786999 2.962821 0.000000
vt 1.435116 3.610938 0.000000
vt 1.435116 2.870233 0.000000
vt 0.786999 2.222116 0.000000
vt 1.527705 2.222116 0.000000
vt 1.527705 1.481411 0.000000
vt 2.175822 2.129528 0.000000
vt 1.527705 2.870233 0.000000
vt 3.009115 1.481411 0.000000
vt 3.657232 2.129528 0.000000
vt 3.657232 0.740705 0.000000
vt 3.009115 1.388822 0.000000
vt 2.175822 0.740705 0.000000
vt 0.786999 1.388822 0.000000
vt 1.527705 0.740705 0.000000
vt 1.435116 0.740705 0.000000
vt 0.786999 -0.740705 0.000000
vt 1.435116 -0.740705 0.000000
vt 2.175822 -0.092588 0.000000
vt 1.527705 -0.740705 0.000000
vt 2.268410 -0.092588 0.000000
vt 3.009115 -0.740705 0.000000
vt 2.916527 -0.092588 0.000000
vt 3.657232 -0.092588 0.000000
vt 3.657232 -1.481411 0.000000
vt 3.009115 -0.833293 0.000000
vt 2.916527 -1.481411 0.000000
vt 2.268410 -0.833293 0.000000
vt 2.916527 -1.573999 0.000000
vt 2.268410 -2.314704 0.000000
vt 2.916527 -2.222116 0.000000
vt 2.916527 -2.962821 0.000000
vt 2.175822 -2.314704 0.000000
vt 1.435116 -2.962821 0.000000
vt 1.527705 -2.314704 0.000000
vt 0.786999 -2.314704 0.000000
vt 1.527705 -1.481411 0.000000
vt 2.175822 -0.833293 0.000000
vt 0.786999 -0.833293 0.000000
vt 1.435116 -1.481411 0.000000
vt 0.786999 -2.222116 0.000000
vt 1.435116 -2.222116 0.000000
vt 0.786999 -3.055409 0.000000
vt 1.435116 -3.703526 0.000000
vt 0.694411 -3.055409 0.000000
vt 0.046294 -3.055409 0.000000
vt 0.046294 -2.962821 0.000000
vt 0.694411 -2.314704 0.000000
vt -3.009115 -2.314704 0.000000
vt -3.657232 -2.962821 0.000000
vt -3.009115 -2.222116 0.000000
vt -3.657232 -1.573999 0.000000
vt -2.916527 -1.573999 0.000000
vt -2.268410 -2.222116 0.000000
vt -2.916527 -1.481411 0.000000
vt -2.268410 -0.833293 0.000000
vt -3.009115 -0.833293 0.000000
vt -3.657232 -1.481411 0.000000
vt -3.009115 0.000000 0.000000
vt -3.657232 0.648117 0.000000
vt -2.916527 0.000000 0.000000
vt -2.268410 0.648117 0.000000
vt -2.268410 -0.092588 0.000000
vt -2.916527 -0.740705 0.000000
vt -2.175822 -0.740705 0.000000
vt -2.175822 -2.222116 0.000000
vt -1.527705 -1.481411 0.000000
vt -1.527705 -0.833293 0.000000
vt -1.527705 -0.092588 0.000000
vt -1.527705 -1.573999 0.000000
vt 0.694411 -2.222116 0.000000
vt 0.046294 -1.573999 0.000000
vt 0.046294 -1.481411 0.000000
vt 0.694411 -0.833293 0.000000
vt -0.046294 -0.833293 0.000000
vt -0.046294 -0.740705 0.000000
vt -0.694411 -0.740705 0.000000
vt -0.694411 -1.481411 0.000000
vt 0.694411 -0.740705 0.000000
vt 0.694411 1.388822 0.000000
vt -1.435116 1.388822 0.000000
vt -1.435116 -0.740705 0.000000
vt -0.786999 -1.481411 0.000000
vt -0.786999 -0.833293 0.000000
vt -3.657232 -3.055409 0.000000
vt -3.657232 -3.703526 0.000000
vt 3.009115 -2.222116 0.000000
vt 3.657232 -1.573999 0.000000
vt 3.657232 -3.703526 0.000000
vt 3.009115 -3.055409 0.000000
vt 1.527705 -3.703526 0.000000
vt 1.527705 -3.055409 0.000000
vt 2.916527 0.000000 0.000000
vt 2.268410 0.648117 0.000000
vt 3.657232 0.648117 0.000000
vt 3.657232 0.000000 0.000000
vt 2.175822 2.962821 0.000000
vt 1.527705 3.610938 0.000000
vt 2.268410 2.962821 0.000000
vt 2.916527 3.610938 0.000000
vt 2.916527 2.870233 0.000000
vt 2.268410 2.222116 0.000000
vt 3.657232 2.222116 0.000000
vt 3.009115 2.870233 0.000000
vt 3.657232 3.610938 0.000000
vt 3.009115 3.610938 0.000000
vt 0.000000 0.024999 0.000000
vt 0.833293 0.024999 0.000000
vt 0.000000 0.499982 0.000000
vt 0.833293 0.499982 0.000000
vt 0.000000 0.024999 0.000000
vt 0.092588 0.024999 0.000000
vt 0.000000 0.499982 0.000000
vt 0.092588 0.499982 0.000000
vt 0.000000 0.024999 0.000000
vt 0.740705 0.024999 0.000000
vt 0.000000 0.499982 0.000000
vt 0.740705 0.499982 0.000000
vt 0.000000 0.024999 0.000000
vt 2.129528 0.024999 0.000000
vt 0.000000 0.499982 0.000000
vt 2.129528 0.499982 0.000000
vt 0.000000 0.024999 0.000000
vt 2.222116 0.024999 0.000000
vt 0.000000 0.499982 0.000000
vt 2.222116 0.499982 0.000000
vt 0.000000 0.024999 0.000000
vt 0.092588 0.024999 0.000000
vt 0.000000 0.499982 0.000000
vt 0.092588 0.499982 0.000000
vt 0.000000 0.024999 0.000000
vt 2.222116 0.024999 0.000000
vt 0.000000 0.499982 0.000000
vt 2.222116 0.499982 0.000000
vt 0.000000 0.024999 0.000000
vt 0.648117 0.024999 0.000000
vt 0.000000 0.499982 0.000000
vt 0.648117 0.499982 0.000000
vt 0.000000 0.024999 0.000000
vt 2.870233 0.024999 0.000000
vt 0.000000 0.499982 0.000000
vt 2.870233 0.499982 0.000000
vt 0.000000 0.024999 0.000000
vt 1.388822 0.024999 0.000000
vt 0.000000 0.499982 0.000000
vt 1.388822 0.499982 0.000000
vt 0.000000 0.024999 0.000000
vt 1.481411 0.024999 0.000000
vt 0.000000 0.499982 0.000000
vt 1.481411 0.499982 0.000000
vt 0.000000 0.024999 0.000000
vt 0.740705 0.024999 0.000000
vt 0.000000 0.499982 0.000000
vt 0.740705 0.499982 0.000000
vt 0.000000 0.024999 0.000000
vt 0.648117 0.024999 0.000000
vt 0.000000 0.499982 0.000000
vt 0.648117 0.499982 0.000000
vt 0.000000 0.024999 0.000000
vt 0.740705 0.024999 0.000000
vt 0.000000 0.499982 0.000000
vt 0.740705 0.499982 0.000000
vt 0.000000 0.024999 0.000000
vt 0.092588 0.024999 0.000000
vt 0.000000 0.499982 0.000000
vt 0.092588 0.499982 0.000000
vt 0.000000 0.024999 0.000000
vt 0.833293 0.024999 0.000000
vt 0.000000 0.499982 0.000000
vt 0.833293 0.499982 0.000000
vt 0.000000 0.024999 0.000000
vt 0.740705 0.024999 0.000000
vt 0.000000 0.499982 0.000000
vt 0.740705 0.499982 0.000000
vt 0.000000 0.024999 0.000000
vt 0.740705 0.024999 0.000000
vt 0.000000 0.499982 0.000000
vt 0.740705 0.499982 0.000000
vt 0.000000 0.024999 0.000000
vt 0.092588 0.024999 0.000000
vt 0.000000 0.499982 0.000000
vt 0.092588 0.499982 0.000000
vt -0.000000 0.024999 0.000000
vt 1.481411 0.024999 0.000000
vt 0.000000 0.499982 0.000000
vt 1.481411 0.499982 0.000000
vt 0.000000 0.024999 0.000000
vt 2.129528 0.024999 0.000000
vt 0.000000 0.499982 0.000000
vt 2.129528 0.499982 0.000000
vt 0.000000 0.024999 0.000000
vt 0.648117 0.024999 0.000000
vt 0.000000 0.499982 0.000000
vt 0.648117 0.499982 0.000000
vt 0.000000 0.024999 0.000000
vt 1.481411 0.024999 0.000000
vt 0.000000 0.499982 0.000000
vt 1.481411 0.499982 0.000000
vt 0.000000 0.024999 0.000000
vt 1.481411 0.024999 0.000000
vt 0.000000 0.499982 0.000000
vt 1.481411 0.499982 0.000000
vt 0.000000 0.024999 0.000000
vt 0.740705 0.024999 0.000000
vt 0.000000 0.499982 0.000000
vt 0.740705 0.499982 0.000000
vt 0.000000 0.024999 0.000000
vt 0.092588 0.024999 0.000000
vt 0.000000 0.499982 0.000000
vt 0.092588 0.499982 0.000000
vt 0.000000 0.024999 0.000000
vt 0.740705 0.024999 0.000000
vt 0.000000 0.499982 0.000000
vt 0.740705 0.499982 0.000000
vt 0.000000 0.024999 0.000000
vt 1.388822 0.024999 0.000000
vt 0.000000 0.499982 0.000000
vt 1.388822 0.499982 0.000000
vt 0.000000 0.024999 0.000000
vt 0.648117 0.024999 0.000000
vt 0.000000 0.499982 0.000000
vt 0.648117 0.499982 0.000000
vt 0.000000 0.024999 0.000000
vt 0.740705 0.024999 0.000000
vt 0.000000 0.499982 0.000000
vt 0.740705 0.499982 0.000000
vt 0.000000 0.024999 0.000000
vt 0.740705 0.024999 0.000000
vt 0.000000 0.499982 0.000000
vt 0.740705 0.499982 0.000000
vt 0.000000 0.024999 0.000000
vt 0.740705 0.024999 0.000000
vt 0.000000 0.499982 0.000000
vt 0.740705 0.499982 0.000000
vt 0.000000 0.024999 0.000000
vt 0.092588 0.024999 0.000000
vt 0.000000 0.499982 0.000000
vt 0.092588 0.499982 0.000000
vt 0.000000 0.024999 0.000000
vt 0.833293 0.024999 0.000000
vt 0.000000 0.499982 0.000000
vt 0.833293 0.499982 0.000000
vt 0.000000 0.024999 0.000000
vt 0.740705 0.024999 0.000000
vt 0.000000 0.499982 0.000000
vt 0.740705 0.499982 0.000000
vt 0.000000 0.024999 0.000000
vt 0.740705 0.024999 0.000000
vt 0.000000 0.499982 0.000000
vt 0.740705 0.499982 0.000000
vt 0.000000 0.024999 0.000000
vt 0.740705 0.024999 0.000000
vt 0.000000 0.499982 0.000000
vt 0.740705 0.499982 0.000000
vt 0.000000 0.024999 0.000000
vt 1.481411 0.024999 0.000000
vt 0.000000 0.499982 0.000000
vt 1.481411 0.499982 0.000000
vt 0.000000 0.024999 0.000000
vt 0.092588 0.024999 0.000000
vt 0.000000 0.499982 0.000000
vt 0.092588 0.499982 0.000000
vt 0.000000 0.024999 0.000000
vt 2.222116 0.024999 0.000000
vt 0.000000 0.499982 0.000000
vt 2.222116 0.499982 0.000000
vt 0.000000 0.024999 0.000000
vt 2.129528 0.024999 0.000000
vt 0.000000 0.499982 0.000000
vt 2.129528 0.499982 0.000000
vt 0.000000 0.024999 0.000000
vt 0.648117 0.024999 0.000000
vt 0.000000 0.499982 0.000000
vt 0.648117 0.499982 0.000000
vt 0.000000 0.024999 0.000000
vt 1.481411 0.024999 0.000000
vt 0.000000 0.499982 0.000000
vt 1.481411 0.499982 0.000000
vt 0.000000 0.024999 0.000000
vt 0.092588 0.024999 0.000000
vt 0.000000 0.499982 0.000000
vt 0.092588 0.499982 0.000000
vt 0.000000 0.024999 0.000000
vt 1.481411 0.024999 0.000000
vt 0.000000 0.499982 0.000000
vt 1.481411 0.499982 0.000000
vt 0.000000 0.024999 0.000000
vt 1.481411 0.024999 0.000000
vt 0.000000 0.499982 0.000000
vt 1.481411 0.499982 0.000000
vt 0.000000 0.024999 0.000000
vt 0.092588 0.024999 0.000000
vt 0.000000 0.499982 0.000000
vt 0.092588 0.499982 0.000000
vt 0.000000 0.024999 0.000000
vt 0.740705 0.024999 0.000000
vt 0.000000 0.499982 0.000000
vt 0.740705 0.499982 0.000000
vt 0.000000 0.024999 0.000000
vt 1.481411 0.024999 0.000000
vt 0.000000 0.499982 0.000000
vt 1.481411 0.499982 0.000000
vt 0.000000 0.024999 0.000000
vt 0.092588 0.024999 0.000000
vt 0.000000 0.499982 0.000000
vt 0.092588 0.499982 0.000000
vt 0.000000 0.024999 0.000000
vt 1.481411 0.024999 0.000000
vt 0.000000 0.499982 0.000000
vt 1.481411 0.499982 0.000000
vt 0.000000 0.024999 0.000000
vt 1.388822 0.024999 0.000000
vt 0.000000 0.499982 0.000000
vt 1.388822 0.499982 0.000000
vt 0.000000 0.024999 0.000000
vt 1.388822 0.024999 0.000000
vt 0.000000 0.499982 0.000000
vt 1.388822 0.499982 0.000000
vt 0.000000 0.024999 0.000000
vt 0.648117 0.024999 0.000000
vt 0.000000 0.499982 0.000000
vt 0.648117 0.499982 0.000000
vt 0.000000 0.024999 0.000000
vt 0.740705 0.024999 0.000000
vt 0.000000 0.499982 0.000000
vt 0.740705 0.499982 0.000000
vt 0.000000 0.024999 0.000000
vt 0.092588 0.024999 0.000000
vt 0.000000 0.499982 0.000000
vt 0.092588 0.499982 0.000000
vt 0.000000 0.024999 0.000000
vt 0.833293 0.024999 0.000000
vt 0.000000 0.499982 0.000000
vt 0.833293 0.499982 0.000000
vt 0.000000 0.024999 0.000000
vt 0.740705 0.024999 0.000000
vt 0.000000 0.499982 0.000000
vt 0.740705 0.499982 0.000000
vt 0.000000 0.024999 0.000000
vt 0.740705 0.024999 0.000000
vt 0.000000 0.499982 0.000000
vt 0.740705 0.499982 0.000000
vt 0.000000 0.024999 0.000000
vt 0.092588 0.024999 0.000000
vt 0.000000 0.499982 0.000000
vt 0.092588 0.499982 0.000000
vt 0.000000 0.024999 0.000000
vt 0.740705 0.024999 0.000000
vt 0.000000 0.499982 0.000000
vt 0.740705 0.499982 0.000000
vt 0.000000 0.024999 0.000000
vt 3.703526 0.024999 0.000000
vt 0.000000 0.499982 0.000000
vt 3.703526 0.499982 0.000000
vt 0.000000 0.024999 0.000000
vt 0.092588 0.024999 0.000000
vt 0.000000 0.499982 0.000000
vt 0.092588 0.499982 0.000000
vt 0.000000 0.024999 0.000000
vt 0.740705 0.024999 0.000000
vt 0.000000 0.499982 0.000000
vt 0.740705 0.499982 0.000000
vt 0.000000 0.024999 0.000000
vt 1.388822 0.024999 0.000000
vt 0.000000 0.499982 0.000000
vt 1.388822 0.499982 0.000000
vt 0.000000 0.024999 0.000000
vt 0.740705 0.024999 0.000000
vt 0.000000 0.499982 0.000000
vt 0.740705 0.499982 0.000000
vt 0.000000 0.024999 0.000000
vt 0.833293 0.024999 0.000000
vt 0.000000 0.499982 0.000000
vt 0.833293 0.499982 0.000000
vt 0.000000 0.024999 0.000000
vt 0.092588 0.024999 0.000000
vt 0.000000 0.499982 0.000000
vt 0.092588 0.499982 0.000000
vt 0.000000 0.024999 0.000000
vt 0.740705 0.024999 0.000000
vt 0.000000 0.499982 0.000000
vt 0.740705 0.499982 0.000000
vt 0.000000 0.024999 0.000000
vt 0.740705 0.024999 0.000000
vt 0.000000 0.499982 0.000000
vt 0.740705 0.499982 0.000000
vt 0.000000 0.024999 0.000000
vt 1.481411 0.024999 0.000000
vt 0.000000 0.499982 0.000000
vt 1.481411 0.499982 0.000000
vt 0.000000 0.024999 0.000000
vt 2.870233 0.024999 0.000000
vt 0.000000 0.499982 0.000000
vt 2.870233 0.499982 0.000000
vt 0.000000 0.024999 0.000000
vt 1.388822 0.024999 0.000000
vt 0.000000 0.499982 0.000000
vt 1.388822 0.499982 0.000000
vt 0.000000 0.024999 0.000000
vt 0.740705 0.024999 0.000000
vt 0.000000 0.499982 0.000000
vt 0.740705 0.499982 0.000000
vt 0.000000 0.024999 0.000000
vt 0.092588 0.024999 0.000000
vt 0.000000 0.499982 0.000000
vt 0.092588 0.499982 0.000000
vt 0.000000 0.024999 0.000000
vt 0.740705 0.024999 0.000000
vt 0.000000 0.499982 0.000000
vt 0.740705 0.499982 0.000000
vt 0.000000 0.024999 0.000000
vt 2.129528 0.024999 0.000000
vt 0.000000 0.499982 0.000000
vt 2.129528 0.499982 0.000000
vt 0.000000 0.024999 0.000000
vt 2.129528 0.024999 0.000000
vt 0.000000 0.499982 0.000000
vt 2.129528 0.499982 0.000000
vt 0.000000 0.024999 0.000000
vt 2.129528 0.024999 0.000000
vt 0.000000 0.499982 0.000000
vt 2.129528 0.499982 0.000000
vt 0.000000 0.024999 0.000000
vt 0.740705 0.024999 0.000000
vt 0.000000 0.499982 0.000000
vt 0.740705 0.499982 0.000000
vt 0.000000 0.024999 0.000000
vt 0.740705 0.024999 0.000000
vt 0.000000 0.499982 0.000000
vt 0.740705 0.499982 0.000000
vt 0.000000 0.024999 0.000000
vt 0.740705 0.024999 0.000000
vt 0.000000 0.499982 0.000000
vt 0.740705 0.499982 0.000000
vt 0.000000 0.024999 0.000000
vt 0.092588 0.024999 0.000000
vt 0.000000 0.499982 0.000000
vt 0.092588 0.499982 0.000000
vt 0.000000 0.024999 0.000000
vt 1.573999 0.024999 0.000000
vt 0.000000 0.499982 0.000000
vt 1.573999 0.499982 0.000000
vt 0.000000 0.024999 0.000000
vt 0.092588 0.024999 0.000000
vt 0.000000 0.499982 0.000000
vt 0.092588 0.499982 0.000000
vt 0.000000 0.024999 0.000000
vt 0.740705 0.024999 0.000000
vt 0.000000 0.499982 0.000000
vt 0.740705 0.499982 0.000000
vt 0.000000 0.024999 0.000000
vt 0.648117 0.024999 0.000000
vt 0.000000 0.499982 0.000000
vt 0.648117 0.499982 0.000000
vt 0.000000 0.024999 0.000000
vt 0.740705 0.024999 0.000000
vt 0.000000 0.499982 0.000000
vt 0.740705 0.499982 0.000000
vt 0.000000 0.024999 0.000000
vt 0.740705 0.024999 0.000000
vt 0.000000 0.499982 0.000000
vt 0.740705 0.499982 0.000000
vt 0.000000 0.024999 0.000000
vt 0.740705 0.024999 0.000000
vt 0.000000 0.499982 0.000000
vt 0.740705 0.499982 0.000000
vt 0.000000 0.024999 0.000000
vt 0.740705 0.024999 0.000000
vt 0.000000 0.499982 0.000000
vt 0.740705 0.499982 0.000000
vt 0.000000 0.024999 0.000000
vt 1.388822 0.024999 0.000000
vt 0.000000 0.499982 0.000000
vt 1.388822 0.499982 0.000000
vt 0.000000 0.024999 0.000000
vt 2.129528 0.024999 0.000000
vt 0.000000 0.499982 0.000000
vt 2.129528 0.499982 0.000000
vt 0.000000 0.024999 0.000000
vt 0.740705 0.024999 0.000000
vt 0.000000 0.499982 0.000000
vt 0.740705 0.499982 0.000000
vt 0.000000 0.024999 0.000000
vt 0.092588 0.024999 0.000000
vt 0.000000 0.499982 0.000000
vt 0.092588 0.499982 0.000000
vt 0.000000 0.024999 0.000000
vt 0.740705 0.024999 0.000000
vt 0.000000 0.499982 0.000000
vt 0.740705 0.499982 0.000000
vt 0.000000 0.024999 0.000000
vt 1.388822 0.024999 0.000000
vt 0.000000 0.499982 0.000000
vt 1.388822 0.499982 0.000000
vt 0.000000 0.024999 0.000000
vt 3.703526 0.024999 0.000000
vt 0.000000 0.499982 0.000000
vt 3.703526 0.499982 0.000000
vt 0.000000 0.024999 0.000000
vt 0.092588 0.024999 0.000000
vt 0.000000 0.499982 0.000000
vt 0.092588 0.499982 0.000000
vt 0.000000 0.024999 0.000000
vt 3.703526 0.024999 0.000000
vt 0.000000 0.499982 0.000000
vt 3.703526 0.499982 0.000000
vt 0.000000 0.024999 0.000000
vt 0.648117 0.024999 0.000000
vt 0.000000 0.499982 0.000000
vt 0.648117 0.499982 0.000000
vt 0.000000 0.024999 0.000000
vt 5.092349 0.024999 0.000000
vt 0.000000 0.499982 0.000000
vt 5.092349 0.499982 0.000000
vt 0.000000 0.024999 0.000000
vt 0.740705 0.024999 0.000000
vt 0.000000 0.499982 0.000000
vt 0.740705 0.499982 0.000000
vt 0.000000 0.024999 0.000000
vt 1.481411 0.024999 0.000000
vt 0.000000 0.499982 0.000000
vt 1.481411 0.499982 0.000000
vt 0.000000 0.024999 0.000000
vt 0.740705 0.024999 0.000000
vt 0.000000 0.499982 0.000000
vt 0.740705 0.499982 0.000000
vt 0.000000 0.024999 0.000000
vt 0.092588 0.024999 0.000000
vt 0.000000 0.499982 0.000000
vt 0.092588 0.499982 0.000000
vt 0.000000 0.024999 0.000000
vt 0.833293 0.024999 0.000000
vt 0.000000 0.499982 0.000000
vt 0.833293 0.499982 0.000000
vt 0.000000 0.024999 0.000000
vt 1.481411 0.024999 0.000000
vt 0.000000 0.499982 0.000000
vt 1.481411 0.499982 0.000000
vt 0.000000 0.024999 0.000000
vt 0.648117 0.024999 0.000000
vt 0.000000 0.499982 0.000000
vt 0.648117 0.499982 0.000000
vt 0.000000 0.024999 0.000000
vt 2.129528 0.024999 0.000000
vt 0.000000 0.499982 0.000000
vt 2.129528 0.499982 0.000000
vt 0.000000 0.024999 0.000000
vt 2.129528 0.024999 0.000000
vt 0.000000 0.499982 0.000000
vt 2.129528 0.499982 0.000000
vt 0.000000 0.024999 0.000000
vt 0.740705 0.024999 0.000000
vt 0.000000 0.499982 0.000000
vt 0.740705 0.499982 0.000000
vt 0.000000 0.024999 0.000000
vt 0.092588 0.024999 0.000000
vt 0.000000 0.499982 0.000000
vt 0.092588 0.499982 0.000000
vt 0.000000 0.024999 0.000000
vt 0.740705 0.024999 0.000000
vt 0.000000 0.499982 0.000000
vt 0.740705 0.499982 0.000000
vt 0.000000 0.024999 0.000000
vt 1.388822 0.024999 0.000000
vt 0.000000 0.499982 0.000000
vt 1.388822 0.499982 0.000000
vt 0.000000 0.024999 0.000000
vt 0.740705 0.024999 0.000000
vt 0.000000 0.499982 0.000000
vt 0.740705 0.499982 0.000000
vt 0.000000 0.024999 0.000000
vt 0.092588 0.024999 0.000000
vt 0.000000 0.499982 0.000000
vt 0.092588 0.499982 0.000000
vt 0.000000 0.024999 0.000000
vt 0.740705 0.024999 0.000000
vt 0.000000 0.499982 0.000000
vt 0.740705 0.499982 0.000000
vt 0.000000 0.024999 0.000000
vt 0.648117 0.024999 0.000000
vt 0.000000 0.499982 0.000000
vt 0.648117 0.499982 0.000000
vt 0.000000 0.024999 0.000000
vt 1.388822 0.024999 0.000000
vt 0.000000 0.499982 0.000000
vt 1.388822 0.499982 0.000000
vt 0.000000 0.024999 0.000000
vt 0.740705 0.024999 0.000000
vt 0.000000 0.499982 0.000000
vt 0.740705 0.499982 0.000000
vt 0.000000 0.024999 0.000000
vt 0.092588 0.024999 0.000000
vt 0.000000 0.499982 0.000000
vt 0.092588 0.499982 0.000000
vt 0.000000 0.024999 0.000000
vt 0.833293 0.024999 0.000000
vt 0.000000 0.499982 0.000000
vt 0.833293 0.499982 0.000000
vt 0.000000 0.024999 0.000000
vt 1.481411 0.024999 0.000000
vt 0.000000 0.499982 0.000000
vt 1.481411 0.499982 0.000000
vt 0.000000 0.024999 0.000000
vt 1.388822 0.024999 0.000000
vt 0.000000 0.499982 0.000000
vt 1.388822 0.499982 0.000000
vt 0.000000 0.024999 0.000000
vt 1.481411 0.024999 0.000000
vt 0.000000 0.499982 0.000000
vt 1.481411 0.499982 0.000000
vt 0.000000 0.024999 0.000000
vt 0.833293 0.024999 0.000000
vt 0.000000 0.499982 0.000000
vt 0.833293 0.499982 0.000000
vt 0.000000 0.024999 0.000000
vt 0.092588 0.024999 0.000000
vt 0.000000 0.499982 0.000000
vt 0.092588 0.499982 0.000000
vt 0.000000 0.024999 0.000000
vt 0.740705 0.024999 0.000000
vt 0.000000 0.499982 0.000000
vt 0.740705 0.499982 0.000000
vt 0.000000 0.024999 0.000000
vt 1.388822 0.024999 0.000000
vt 0.000000 0.499982 0.000000
vt 1.388822 0.499982 0.000000
vt 0.000000 0.024999 0.000000
vt 1.388822 0.024999 0.000000
vt 0.000000 0.499982 0.000000
vt 1.388822 0.499982 0.000000
vt 0.000000 0.024999 0.000000
vt 0.648117 0.024999 0.000000
vt 0.000000 0.499982 0.000000
vt 0.648117 0.499982 0.000000
vt 0.000000 0.024999 0.000000
vt 0.740705 0.024999 0.000000
vt 0.000000 0.499982 0.000000
vt 0.740705 0.499982 0.000000
vt 0.000000 0.024999 0.000000
vt 0.092588 0.024999 0.000000
vt 0.000000 0.499982 0.000000
vt 0.092588 0.499982 0.000000
vt 0.000000 0.024999 0.000000
vt 0.740705 0.024999 0.000000
vt 0.000000 0.499982 0.000000
vt 0.740705 0.499982 0.000000
vt 0.000000 0.024999 0.000000
vt 1.388822 0.024999 0.000000
vt 0.000000 0.499982 0.000000
vt 1.388822 0.499982 0.000000
vt 0.000000 0.024999 0.000000
vt 0.740705 0.024999 0.000000
vt 0.000000 0.499982 0.000000
vt 0.740705 0.499982 0.000000
vt 0.000000 0.024999 0.000000
vt 0.092588 0.024999 0.000000
vt 0.000000 0.499982 0.000000
vt 0.092588 0.499982 0.000000
vt 0.000000 0.024999 0.000000
vt 0.740705 0.024999 0.000000
vt 0.000000 0.499982 0.000000
vt 0.740705 0.499982 0.000000
vt -0.647477 0.024999 0.000000
vt 1.481411 0.024999 0.000000
vt -0.647477 0.499982 0.000000
vt 1.481411 0.499982 0.000000
vt 0.000000 0.000000 0.000000
vt 7.499641 0.000000 0.000000
vt 0.000000 0.499982 0.000000
vt 7.499641 0.499982 0.000000
vt 0.000000 0.000000 0.000000
vt 7.499641 0.000000 0.000000
vt 0.000000 0.499982 0.000000
vt 7.499641 0.499982 0.000000
vt 0.000000 0.000000 0.000000
vt 7.499641 0.000000 0.000000
vt 0.000000 0.499982 0.000000
vt 7.499641 0.499982 0.000000
vt -4.444232 0.499982 0.000000
vt -4.444232 0.000000 0.000000
vt -0.000640 0.024999 0.000000
vt 3.055409 0.000000 0.000000
vt 0.000000 0.024999 0.000000
vt 3.055409 0.499982 0.000000
vt 0.000000 0.499982 0.000000
vt -0.000640 0.499982 0.000000
vt -3.749820 3.749820 0.000000
vt -2.916527 3.657232 0.000000
vt -0.694411 3.749820 0.000000
vt -0.786999 3.657232 0.000000
vt -0.694411 2.916527 0.000000
vt -0.786999 2.916527 0.000000
vt -3.749820 -3.749820 0.000000
vt -3.657232 0.694411 0.000000
vt -3.657232 0.786999 0.000000
vt -3.657232 3.657232 0.000000
vt 3.749820 -3.749820 0.000000
vt 1.435116 -3.657232 0.000000
vt -3.657232 -3.657232 0.000000
vt -3.657232 -3.009115 0.000000
vt 3.749820 3.749820 0.000000
vt 3.657232 0.046294 0.000000
vt 3.657232 -0.046294 0.000000
vt 3.657232 -1.435116 0.000000
vt -0.693771 3.749820 0.000000
vt 1.527705 3.657232 0.000000
vt 2.916527 3.657232 0.000000
vt 3.009115 3.657232 0.000000
vt 3.009115 2.916527 0.000000
vt 2.916527 2.916527 0.000000
vt -0.693771 3.657232 0.000000
vt 1.435116 3.657232 0.000000
vt 1.435116 2.916527 0.000000
vt 1.527705 2.916527 0.000000
vt 3.657232 3.657232 0.000000
vt 3.657232 2.268410 0.000000
vt 3.657232 2.175822 0.000000
vt 2.268410 2.268410 0.000000
vt 2.175822 2.175822 0.000000
vt 2.175822 3.009115 0.000000
vt 2.268410 3.009115 0.000000
vt 3.657232 0.786999 0.000000
vt 3.657232 0.694411 0.000000
vt 2.268410 0.694411 0.000000
vt 2.175822 0.786999 0.000000
vt 2.175822 -0.046294 0.000000
vt 2.268410 -0.046294 0.000000
vt 2.916527 0.046294 0.000000
vt 2.916527 -0.046294 0.000000
vt 3.657232 -1.527705 0.000000
vt 2.916527 -1.435116 0.000000
vt 2.916527 -1.527705 0.000000
vt 3.657232 -3.657232 0.000000
vt 1.527705 -3.657232 0.000000
vt 1.527705 -3.009115 0.000000
vt 1.435116 -2.916527 0.000000
vt 2.916527 -2.916527 0.000000
vt 3.009115 -3.009115 0.000000
vt 3.009115 -2.175822 0.000000
vt 2.916527 -2.175822 0.000000
vt -3.657232 -2.916527 0.000000
vt 0.046294 -3.009115 0.000000
vt 0.046294 -2.916527 0.000000
vt -3.657232 -1.527705 0.000000
vt -3.657232 -1.435116 0.000000
vt -2.916527 -1.527705 0.000000
vt -2.916527 -1.435116 0.000000
vt -2.268410 0.694411 0.000000
vt -2.268410 0.786999 0.000000
vt -2.175822 0.046294 0.000000
vt -2.175822 2.175822 0.000000
vt -2.268410 -0.046294 0.000000
vt -1.527705 -0.046294 0.000000
vt -1.527705 0.046294 0.000000
vt -1.435116 -0.694411 0.000000
vt -1.435116 1.435116 0.000000
vt -1.527705 -0.786999 0.000000
vt -0.786999 -0.786999 0.000000
vt -0.694411 -0.694411 0.000000
vt -0.694411 -1.435116 0.000000
vt -0.786999 -1.435116 0.000000
vt 0.046294 -1.527705 0.000000
vt -1.527705 -1.527705 0.000000
vt -1.527705 -1.435116 0.000000
vt 0.046294 -1.435116 0.000000
vt 0.694411 1.435116 0.000000
vt -0.046294 1.527705 0.000000
vt -1.527705 1.527705 0.000000
vt 0.694411 -0.694411 0.000000
vt 0.786999 -0.694411 0.000000
vt 0.786999 1.435116 0.000000
vt 0.046294 1.527705 0.000000
vt 1.435116 1.527705 0.000000
vt 1.527705 1.527705 0.000000
vt 1.435116 2.175822 0.000000
vt 1.527705 2.268410 0.000000
vt 0.786999 2.268410 0.000000
vt -0.046294 -0.694411 0.000000
vt 0.694411 -0.786999 0.000000
vt 0.786999 -0.786999 0.000000
vt 1.435116 -0.694411 0.000000
vt 2.175822 -0.786999 0.000000
vt 1.527705 -0.694411 0.000000
vt 2.268410 -0.786999 0.000000
vt 3.009115 -0.694411 0.000000
vt 3.009115 -0.786999 0.000000
vt -0.046294 -0.786999 0.000000
vt 0.786999 -2.175822 0.000000
vt 0.694411 -2.175822 0.000000
vt 0.786999 -2.268410 0.000000
vt 0.694411 -2.268410 0.000000
vt 0.786999 -3.009115 0.000000
vt 0.694411 -3.009115 0.000000
vt -2.175822 -2.175822 0.000000
vt -3.009115 -2.268410 0.000000
vt -2.268410 -2.175822 0.000000
vt -3.009115 -2.175822 0.000000
vt -2.268410 -0.786999 0.000000
vt -2.175822 -0.694411 0.000000
vt -2.916527 -0.694411 0.000000
vt -2.916527 0.046294 0.000000
vt -3.009115 0.046294 0.000000
vt -3.009115 -0.786999 0.000000
vt 1.435116 -2.175822 0.000000
vt 1.527705 -2.268410 0.000000
vt 1.527705 -1.435116 0.000000
vt 1.435116 -1.435116 0.000000
vt 2.175822 -2.268410 0.000000
vt 2.268410 -2.268410 0.000000
vt 1.527705 0.786999 0.000000
vt 1.435116 0.786999 0.000000
vt 3.009115 1.435116 0.000000
vt 3.009115 1.527705 0.000000
vt 0.786999 3.009115 0.000000
vt 0.694411 2.916527 0.000000
vt 0.694411 2.175822 0.000000
vt -0.046294 3.009115 0.000000
vt -0.046294 2.916527 0.000000
vt 0.046294 2.268410 0.000000
vt -0.046294 2.268410 0.000000
vt -0.694411 2.175822 0.000000
vt -1.435116 2.268410 0.000000
vt -1.527705 2.268410 0.000000
vt -2.268410 2.268410 0.000000
vt -0.694411 2.268410 0.000000
vt -1.527705 2.916527 0.000000
vt -1.435116 3.009115 0.000000
vt -2.268410 3.009115 0.000000
vt -2.268410 2.916527 0.000000
vt -3.009115 3.657232 0.000000
vt -3.009115 1.435116 0.000000
vt -2.916527 1.435116 0.000000
vt 3.749820 3.749820 0.000000
vt -3.749820 3.749820 0.000000
vt 3.749820 -3.749820 0.000000
vt -3.749820 -3.749820 0.000000
vn -1.000000 0.000000 0.000000
vn -1.000000 0.000000 0.000000
vn -1.000000 0.000000 0.000000
vn -1.000000 0.000000 0.000000
vn 0.000000 0.000000 1.000000
vn 0.000000 0.000000 1.000000
vn 0.000000 0.000000 1.000000
vn 0.000000 0.000000 1.000000
vn 0.000000 0.000000 1.000000
vn 0.000000 0.000000 1.000000
vn 0.000000 0.000000 1.000000
vn 0.000000 0.000000 1.000000
vn 0.000000 0.000000 1.000000
vn 0.000000 0.000000 1.000000
vn 0.000000 0.000000 1.000000
vn 0.000000 0.000000 1.000000
vn 0.000000 0.000000 1.000000
vn 0.000000 0.000000 1.000000
vn 0.000000 0.000000 1.000000
vn 0.000000 0.000000 1.000000
vn 0.000000 0.000000 1.000000
vn 0.000000 0.000000 1.000000
vn 0.000000 0.000000 1.000000
vn 0.000000 0.000000 1.000000
vn 0.000000 0.000000 1.000000
vn 0.000000 0.000000 1.000000
vn 0.000000 0.000000 1.000000
vn 0.000000 0.000000 1.000000
vn 0.000000 0.000000 1.000000
vn 0.000000 0.000000 1.000000
vn 0.000000 0.000000 1.000000
vn 0.000000 0.000000 1.000000
vn 0.000000 0.000000 1.000000
vn 0.000000 0.000000 1.000000
vn 0.000000 0.000000 1.000000
vn 0.000000 0.000000 1.000000
vn 0.000000 0.000000 1.000000
vn 0.000000 0.000000 1.000000
vn 0.000000 0.000000 1.000000
vn 0.000000 0.000000 1.000000
vn 0.000000 0.000000 1.000000
vn 0.000000 0.000000 1.000000
vn 0.000000 0.000000 1.000000
vn 0.000000 0.000000 1.000000
vn 0.000000 0.000000 1.000000
vn 0.000000 0.000000 1.000000
vn 0.000000 0.000000 1.000000
vn 0.000000 0.000000 1.000000
vn 0.000000 0.000000 1.000000
vn 0.000000 0.000000 1.000000
vn 0.000000 0.000000 1.000000
vn 0.000000 0.000000 1.000000
vn 0.000000 0.000000 1.000000
vn 0.000000 0.000000 1.000000
vn 0.000000 0.000000 1.000000
vn 0.000000 0.000000 1.000000
vn 0.000000 0.000000 1.000000
vn 0.000000 0.000000 1.000000
vn 0.000000 0.000000 1.000000
vn 0.000000 0.000000 1.000000
vn 0.000000 0.000000 1.000000
vn 0.000000 0.000000 1.000000
vn 0.000000 0.000000 1.000000
vn 0.000000 0.000000 1.000000
vn 0.000000 0.000000 1.000000
vn 0.000000 0.000000 1.000000
vn 0.000000 0.000000 1.000000
vn 0.000000 0.000000 1.000000
vn 0.000000 0.000000 1.000000
vn 0.000000 0.000000 1.000000
vn 0.000000 0.000000 1.000000
vn 0.000000 0.000000 1.000000
vn 0.000000 0.000000 1.000000
vn 0.000000 0.000000 1.000000
vn 0.000000 0.000000 1.000000
vn 0.000000 0.000000 1.000000
vn 0.000000 0.000000 1.000000
vn 0.000000 0.000000 1.000000
vn 0.000000 0.000000 1.000000
vn 0.000000 0.000000 1.000000
vn 0.000000 0.000000 1.000000
vn 0.000000 0.000000 1.000000
vn 0.000000 0.000000 1.000000
vn 0.000000 0.000000 1.000000
vn 0.000000 0.000000 1.000000
vn 0.000000 0.000000 1.000000
vn 0.000000 0.000000 1.000000
vn 0.000000 0.000000 1.000000
vn 0.000000 0.000000 1.000000
vn 0.000000 0.000000 1.000000
vn 0.000000 0.000000 1.000000
vn 0.000000 0.000000 1.000000
vn 0.000000 0.000000 1.000000
vn 0.000000 0.000000 1.000000
vn 0.000000 0.000000 1.000000
vn 0.000000 0.000000 1.000000
vn 0.000000 0.000000 1.000000
vn 0.000000 0.000000 1.000000
vn 0.000000 0.000000 1.000000
vn 0.000000 0.000000 1.000000
vn 0.000000 0.000000 1.000000
vn 0.000000 0.000000 1.000000
vn 0.000000 0.000000 1.000000
vn 0.000000 0.000000 1.000000
vn 0.000000 0.000000 1.000000
vn 0.000000 0.000000 1.000000
vn 0.000000 0.000000 1.000000
vn 0.000000 0.000000 1.000000
vn 0.000000 0.000000 1.000000
vn 0.000000 0.000000 1.000000
vn 0.000000 0.000000 1.000000
vn 0.000000 0.000000 1.000000
vn 0.000000 0.000000 1.000000
vn 0.000000 0.000000 1.000000
vn 0.000000 0.000000 1.000000
vn 0.000000 0.000000 1.000000
vn 0.000000 0.000000 1.000000
vn 0.000000 0.000000 1.000000
vn 0.000000 0.000000 1.000000
vn 0.000000 0.000000 1.000000
vn 0.000000 0.000000 1.000000
vn 0.000000 0.000000 1.000000
vn 0.000000 0.000000 1.000000
vn 0.000000 0.000000 1.000000
vn 0.000000 0.000000 1.000000
vn 0.000000 0.000000 1.000000
vn 0.000000 0.000000 1.000000
vn 0.000000 0.000000 1.000000
vn 0.000000 0.000000 1.000000
vn 0.000000 0.000000 1.000000
vn 0.000000 0.000000 1.000000
vn 0.000000 0.000000 1.000000
vn 0.000000 0.000000 1.000000
vn 0.000000 0.000000 1.000000
vn 0.000000 0.000000 1.000000
vn 0.000000 0.000000 1.000000
vn 0.000000 0.000000 1.000000
vn 0.000000 0.000000 1.000000
vn 0.000000 0.000000 1.000000
vn 0.000000 0.000000 1.000000
vn 0.000000 0.000000 1.000000
vn 0.000000 0.000000 1.000000
vn 0.000000 0.000000 1.000000
vn 0.000000 0.000000 1.000000
vn 0.000000 0.000000 1.000000
vn 0.000000 0.000000 1.000000
vn 1.000000 0.000000 0.000000
vn 1.000000 0.000000 0.000000
vn 1.000000 0.000000 0.000000
vn 1.000000 0.000000 0.000000
vn 0.000000 -1.000000 0.000000
vn 0.000000 -1.000000 0.000000
vn 0.000000 -1.000000 0.000000
vn 0.000000 -1.000000 0.000000
vn -1.000000 0.000000 0.000000
vn -1.000000 0.000000 0.000000
vn -1.000000 0.000000 0.000000
vn -1.000000 0.000000 0.000000
vn -0.000000 -1.000000 0.000000
vn -0.000000 -1.000000 0.000000
vn -0.000000 -1.000000 0.000000
vn -0.000000 -1.000000 0.000000
vn 1.000000 0.000000 0.000000
vn 1.000000 0.000000 0.000000
vn 1.000000 0.000000 0.000000
vn 1.000000 0.000000 0.000000
vn 0.000000 -1.000000 0.000000
vn 0.000000 -1.000000 0.000000
vn 0.000000 -1.000000 0.000000
vn 0.000000 -1.000000 0.000000
vn -1.000000 0.000000 0.000000
vn -1.000000 0.000000 0.000000
vn -1.000000 0.000000 0.000000
vn -1.000000 0.000000 0.000000
vn -0.000000 -1.000000 0.000000
vn -0.000000 -1.000000 0.000000
vn -0.000000 -1.000000 0.000000
vn -0.000000 -1.000000 0.000000
vn 1.000000 0.000000 0.000000
vn 1.000000 0.000000 0.000000
vn 1.000000 0.000000 0.000000
vn 1.000000 0.000000 0.000000
vn 0.000000 1.000000 0.000000
vn 0.000000 1.000000 0.000000
vn 0.000000 1.000000 0.000000
vn 0.000000 1.000000 0.000000
vn -1.000000 0.000000 0.000000
vn -1.000000 0.000000 0.000000
vn -1.000000 0.000000 0.000000
vn -1.000000 0.000000 0.000000
vn 0.000000 1.000000 0.000000
vn 0.000000 1.000000 0.000000
vn 0.000000 1.000000 0.000000
vn 0.000000 1.000000 0.000000
vn -1.000000 0.000000 0.000000
vn -1.000000 0.000000 0.000000
vn -1.000000 0.000000 0.000000
vn -1.000000 0.000000 0.000000
vn 0.000000 -1.000000 0.000000
vn 0.000000 -1.000000 0.000000
vn 0.000000 -1.000000 0.000000
vn 0.000000 -1.000000 0.000000
vn -1.000000 -0.000000 0.000000
vn -1.000000 -0.000000 0.000000
vn -1.000000 -0.000000 0.000000
vn -1.000000 -0.000000 0.000000
vn 0.000000 1.000000 0.000000
vn 0.000000 1.000000 0.000000
vn 0.000000 1.000000 0.000000
vn 0.000000 1.000000 0.000000
vn 1.000000 0.000000 0.000000
vn 1.000000 0.000000 0.000000
vn 1.000000 0.000000 0.000000
vn 1.000000 0.000000 0.000000
vn 0.000000 1.000000 0.000000
vn 0.000000 1.000000 0.000000
vn 0.000000 1.000000 0.000000
vn 0.000000 1.000000 0.000000
vn 1.000000 0.000000 0.000000
vn 1.000000 0.000000 0.000000
vn 1.000000 0.000000 0.000000
vn 1.000000 0.000000 0.000000
vn -0.000000 -1.000000 0.000000
vn -0.000000 -1.000000 0.000000
vn -0.000000 -1.000000 0.000000
vn -0.000000 -1.000000 0.000000
vn 1.000000 -0.000000 0.000000
vn 1.000000 -0.000000 0.000000
vn 1.000000 -0.000000 0.000000
vn 1.000000 -0.000000 0.000000
vn 0.000000 1.000000 0.000000
vn 0.000000 1.000000 0.000000
vn 0.000000 1.000000 0.000000
vn 0.000000 1.000000 0.000000
vn -1.000000 0.000000 0.000000
vn -1.000000 0.000000 0.000000
vn -1.000000 0.000000 0.000000
vn -1.000000 0.000000 0.000000
vn 0.000000 1.000000 0.000000
vn 0.000000 1.000000 0.000000
vn 0.000000 1.000000 0.000000
vn 0.000000 1.000000 0.000000
vn -1.000000 0.000000 0.000000
vn -1.000000 0.000000 0.000000
vn -1.000000 0.000000 0.000000
vn -1.000000 0.000000 0.000000
vn 0.000000 1.000000 0.000000
vn 0.000000 1.000000 0.000000
vn 0.000000 1.000000 0.000000
vn 0.000000 1.000000 0.000000
vn 1.000000 0.000000 0.000000
vn 1.000000 0.000000 0.000000
vn 1.000000 0.000000 0.000000
vn 1.000000 0.000000 0.000000
vn 0.000000 1.000000 0.000000
vn 0.000000 1.000000 0.000000
vn 0.000000 1.000000 0.000000
vn 0.000000 1.000000 0.000000
vn -1.000000 0.000000 0.000000
vn -1.000000 0.000000 0.000000
vn -1.000000 0.000000 0.000000
vn -1.000000 0.000000 0.000000
vn 0.000000 -1.000000 0.000000
vn 0.000000 -1.000000 0.000000
vn 0.000000 -1.000000 0.000000
vn 0.000000 -1.000000 0.000000
vn -1.000000 -0.000000 0.000000
vn -1.000000 -0.000000 0.000000
vn -1.000000 -0.000000 0.000000
vn -1.000000 -0.000000 0.000000
vn 0.000000 -1.000000 0.000000
vn 0.000000 -1.000000 0.000000
vn 0.000000 -1.000000 0.000000
vn 0.000000 -1.000000 0.000000
vn -1.000000 0.000000 0.000000
vn -1.000000 0.000000 0.000000
vn -1.000000 0.000000 0.000000
vn -1.000000 0.000000 0.000000
vn 0.000000 1.000000 0.000000
vn 0.000000 1.000000 0.000000
vn 0.000000 1.000000 0.000000
vn 0.000000 1.000000 0.000000
vn 1.000000 0.000000 0.000000
vn 1.000000 0.000000 0.000000
vn 1.000000 0.000000 0.000000
vn 1.000000 0.000000 0.000000
vn 0.000000 1.000000 0.000000
vn 0.000000 1.000000 0.000000
vn 0.000000 1.000000 0.000000
vn 0.000000 1.000000 0.000000
vn 1.000000 0.000000 0.000000
vn 1.000000 0.000000 0.000000
vn 1.000000 0.000000 0.000000
vn 1.000000 0.000000 0.000000
vn 0.000000 1.000000 0.000000
vn 0.000000 1.000000 0.000000
vn 0.000000 1.000000 0.000000
vn 0.000000 1.000000 0.000000
vn 1.000000 0.000000 0.000000
vn 1.000000 0.000000 0.000000
vn 1.000000 0.000000 0.000000
vn 1.000000 0.000000 0.000000
vn 0.000000 -1.000000 0.000000
vn 0.000000 -1.000000 0.000000
vn 0.000000 -1.000000 0.000000
vn 0.000000 -1.000000 0.000000
vn 1.000000 0.000000 0.000000
vn 1.000000 0.000000 0.000000
vn 1.000000 0.000000 0.000000
vn 1.000000 0.000000 0.000000
vn 0.000000 1.000000 0.000000
vn 0.000000 1.000000 0.000000
vn 0.000000 1.000000 0.000000
vn 0.000000 1.000000 0.000000
vn -1.000000 0.000000 0.000000
vn -1.000000 0.000000 0.000000
vn -1.000000 0.000000 0.000000
vn -1.000000 0.000000 0.000000
vn 0.000000 1.000000 0.000000
vn 0.000000 1.000000 0.000000
vn 0.000000 1.000000 0.000000
vn 0.000000 1.000000 0.000000
vn 1.000000 0.000000 0.000000
vn 1.000000 0.000000 0.000000
vn 1.000000 0.000000 0.000000
vn 1.000000 0.000000 0.000000
vn 0.000000 1.000000 0.000000
vn 0.000000 1.000000 0.000000
vn 0.000000 1.000000 0.000000
vn 0.000000 1.000000 0.000000
vn 1.000000 0.000000 0.000000
vn 1.000000 0.000000 0.000000
vn 1.000000 0.000000 0.000000
vn 1.000000 0.000000 0.000000
vn -0.000000 -1.000000 0.000000
vn -0.000000 -1.000000 0.000000
vn -0.000000 -1.000000 0.000000
vn -0.000000 -1.000000 0.000000
vn 1.000000 0.000000 0.000000
vn 1.000000 0.000000 0.000000
vn 1.000000 0.000000 0.000000
vn 1.000000 0.000000 0.000000
vn 0.000000 -1.000000 0.000000
vn 0.000000 -1.000000 0.000000
vn 0.000000 -1.000000 0.000000
vn 0.000000 -1.000000 0.000000
vn -1.000000 0.000000 0.000000
vn -1.000000 0.000000 0.000000
vn -1.000000 0.000000 0.000000
vn -1.000000 0.000000 0.000000
vn -0.000000 -1.000000 0.000000
vn -0.000000 -1.000000 0.000000
vn -0.000000 -1.000000 0.000000
vn -0.000000 -1.000000 0.000000
vn 1.000000 0.000000 0.000000
vn 1.000000 0.000000 0.000000
vn 1.000000 0.000000 0.000000
vn 1.000000 0.000000 0.000000
vn 0.000000 1.000000 0.000000
vn 0.000000 1.000000 0.000000
vn 0.000000 1.000000 0.000000
vn 0.000000 1.000000 0.000000
vn -1.000000 0.000000 0.000000
vn -1.000000 0.000000 0.000000
vn -1.000000 0.000000 0.000000
vn -1.000000 0.000000 0.000000
vn 0.000000 1.000000 0.000000
vn 0.000000 1.000000 0.000000
vn 0.000000 1.000000 0.000000
vn 0.000000 1.000000 0.000000
vn 1.000000 0.000000 0.000000
vn 1.000000 0.000000 0.000000
vn 1.000000 0.000000 0.000000
vn 1.000000 0.000000 0.000000
vn 0.000000 -1.000000 0.000000
vn 0.000000 -1.000000 0.000000
vn 0.000000 -1.000000 0.000000
vn 0.000000 -1.000000 0.000000
vn 1.000000 0.000000 0.000000
vn 1.000000 0.000000 0.000000
vn 1.000000 0.000000 0.000000
vn 1.000000 0.000000 0.000000
vn 0.000000 -1.000000 0.000000
vn 0.000000 -1.000000 0.000000
vn 0.000000 -1.000000 0.000000
vn 0.000000 -1.000000 0.000000
vn -1.000000 0.000000 0.000000
vn -1.000000 0.000000 0.000000
vn -1.000000 0.000000 0.000000
vn -1.000000 0.000000 0.000000
vn 0.000000 -1.000000 0.000000
vn 0.000000 -1.000000 0.000000
vn 0.000000 -1.000000 0.000000
vn 0.000000 -1.000000 0.000000
vn -1.000000 0.000000 0.000000
vn -1.000000 0.000000 0.000000
vn -1.000000 0.000000 0.000000
vn -1.000000 0.000000 0.000000
vn 0.000000 1.000000 0.000000
vn 0.000000 1.000000 0.000000
vn 0.000000 1.000000 0.000000
vn 0.000000 1.000000 0.000000
vn -1.000000 0.000000 0.000000
vn -1.000000 0.000000 0.000000
vn -1.000000 0.000000 0.000000
vn -1.000000 0.000000 0.000000
vn -0.000000 -1.000000 0.000000
vn -0.000000 -1.000000 0.000000
vn -0.000000 -1.000000 0.000000
vn -0.000000 -1.000000 0.000000
vn -1.000000 0.000000 0.000000
vn -1.000000 0.000000 0.000000
vn -1.000000 0.000000 0.000000
vn -1.000000 0.000000 0.000000
vn 0.000000 1.000000 0.000000
vn 0.000000 1.000000 0.000000
vn 0.000000 1.000000 0.000000
vn 0.000000 1.000000 0.000000
vn 1.000000 0.000000 0.000000
vn 1.000000 0.000000 0.000000
vn 1.000000 0.000000 0.000000
vn 1.000000 0.000000 0.000000
vn -0.000000 1.000000 0.000000
vn -0.000000 1.000000 0.000000
vn -0.000000 1.000000 0.000000
vn -0.000000 1.000000 0.000000
vn 1.000000 -0.000000 0.000000
vn 1.000000 -0.000000 0.000000
vn 1.000000 -0.000000 0.000000
vn 1.000000 -0.000000 0.000000
vn 0.000000 1.000000 0.000000
vn 0.000000 1.000000 0.000000
vn 0.000000 1.000000 0.000000
vn 0.000000 1.000000 0.000000
vn -1.000000 -0.000000 0.000000
vn -1.000000 -0.000000 0.000000
vn -1.000000 -0.000000 0.000000
vn -1.000000 -0.000000 0.000000
vn 0.000000 -1.000000 0.000000
vn 0.000000 -1.000000 0.000000
vn 0.000000 -1.000000 0.000000
vn 0.000000 -1.000000 0.000000
vn -1.000000 0.000000 0.000000
vn -1.000000 0.000000 0.000000
vn -1.000000 0.000000 0.000000
vn -1.000000 0.000000 0.000000
vn 0.000000 1.000000 0.000000
vn 0.000000 1.000000 0.000000
vn 0.000000 1.000000 0.000000
vn 0.000000 1.000000 0.000000
vn -1.000000 0.000000 0.000000
vn -1.000000 0.000000 0.000000
vn -1.000000 0.000000 0.000000
vn -1.000000 0.000000 0.000000
vn 0.000000 -1.000000 0.000000
vn 0.000000 -1.000000 0.000000
vn 0.000000 -1.000000 0.000000
vn 0.000000 -1.000000 0.000000
vn 1.000000 0.000000 0.000000
vn 1.000000 0.000000 0.000000
vn 1.000000 0.000000 0.000000
vn 1.000000 0.000000 0.000000
vn 0.000000 1.000000 0.000000
vn 0.000000 1.000000 0.000000
vn 0.000000 1.000000 0.000000
vn 0.000000 1.000000 0.000000
vn 1.000000 0.000000 0.000000
vn 1.000000 0.000000 0.000000
vn 1.000000 0.000000 0.000000
vn 1.000000 0.000000 0.000000
vn 0.000000 1.000000 0.000000
vn 0.000000 1.000000 0.000000
vn 0.000000 1.000000 0.000000
vn 0.000000 1.000000 0.000000
vn 1.000000 0.000000 0.000000
vn 1.000000 0.000000 0.000000
vn 1.000000 0.000000 0.000000
vn 1.000000 0.000000 0.000000
vn 0.000000 -1.000000 0.000000
vn 0.000000 -1.000000 0.000000
vn 0.000000 -1.000000 0.000000
vn 0.000000 -1.000000 0.000000
vn -1.000000 -0.000000 0.000000
vn -1.000000 -0.000000 0.000000
vn -1.000000 -0.000000 0.000000
vn -1.000000 -0.000000 0.000000
vn 0.000000 1.000000 0.000000
vn 0.000000 1.000000 0.000000
vn 0.000000 1.000000 0.000000
vn 0.000000 1.000000 0.000000
vn -1.000000 0.000000 0.000000
vn -1.000000 0.000000 0.000000
vn -1.000000 0.000000 0.000000
vn -1.000000 0.000000 0.000000
vn 0.000000 -1.000000 0.000000
vn 0.000000 -1.000000 0.000000
vn 0.000000 -1.000000 0.000000
vn 0.000000 -1.000000 0.000000
vn -1.000000 0.000000 0.000000
vn -1.000000 0.000000 0.000000
vn -1.000000 0.000000 0.000000
vn -1.000000 0.000000 0.000000
vn 0.000000 -1.000000 0.000000
vn 0.000000 -1.000000 0.000000
vn 0.000000 -1.000000 0.000000
vn 0.000000 -1.000000 0.000000
vn -1.000000 0.000000 0.000000
vn -1.000000 0.000000 0.000000
vn -1.000000 0.000000 0.000000
vn -1.000000 0.000000 0.000000
vn -0.000000 -1.000000 0.000000
vn -0.000000 -1.000000 0.000000
vn -0.000000 -1.000000 0.000000
vn -0.000000 -1.000000 0.000000
vn 1.000000 -0.000000 0.000000
vn 1.000000 -0.000000 0.000000
vn 1.000000 -0.000000 0.000000
vn 1.000000 -0.000000 0.000000
vn 0.000000 1.000000 0.000000
vn 0.000000 1.000000 0.000000
vn 0.000000 1.000000 0.000000
vn 0.000000 1.000000 0.000000
vn 1.000000 0.000000 0.000000
vn 1.000000 0.000000 0.000000
vn 1.000000 0.000000 0.000000
vn 1.000000 0.000000 0.000000
vn 0.000000 -1.000000 0.000000
vn 0.000000 -1.000000 0.000000
vn 0.000000 -1.000000 0.000000
vn 0.000000 -1.000000 0.000000
vn 1.000000 -0.000000 0.000000
vn 1.000000 -0.000000 0.000000
vn 1.000000 -0.000000 0.000000
vn 1.000000 -0.000000 0.000000
vn 0.000000 1.000000 0.000000
vn 0.000000 1.000000 0.000000
vn 0.000000 1.000000 0.000000
vn 0.000000 1.000000 0.000000
vn 1.000000 0.000000 0.000000
vn 1.000000 0.000000 0.000000
vn 1.000000 0.000000 0.000000
vn 1.000000 0.000000 0.000000
vn 0.000000 -1.000000 0.000000
vn 0.000000 -1.000000 0.000000
vn 0.000000 -1.000000 0.000000
vn 0.000000 -1.000000 0.000000
vn 1.000000 -0.000000 0.000000
vn 1.000000 -0.000000 0.000000
vn 1.000000 -0.000000 0.000000
vn 1.000000 -0.000000 0.000000
vn 0.000000 1.000000 0.000000
vn 0.000000 1.000000 0.000000
vn 0.000000 1.000000 0.000000
vn 0.000000 1.000000 0.000000
vn -1.000000 0.000000 0.000000
vn -1.000000 0.000000 0.000000
vn -1.000000 0.000000 0.000000
vn -1.000000 0.000000 0.000000
vn 0.000000 1.000000 0.000000
vn 0.000000 1.000000 0.000000
vn 0.000000 1.000000 0.000000
vn 0.000000 1.000000 0.000000
vn -1.000000 0.000000 0.000000
vn -1.000000 0.000000 0.000000
vn -1.000000 0.000000 0.000000
vn -1.000000 0.000000 0.000000
vn 0.000000 1.000000 0.000000
vn 0.000000 1.000000 0.000000
vn 0.000000 1.000000 0.000000
vn 0.000000 1.000000 0.000000
vn 1.000000 0.000000 0.000000
vn 1.000000 0.000000 0.000000
vn 1.000000 0.000000 0.000000
vn 1.000000 0.000000 0.000000
vn 0.000000 -1.000000 0.000000
vn 0.000000 -1.000000 0.000000
vn 0.000000 -1.000000 0.000000
vn 0.000000 -1.000000 0.000000
vn 1.000000 0.000000 0.000000
vn 1.000000 0.000000 0.000000
vn 1.000000 0.000000 0.000000
vn 1.000000 0.000000 0.000000
vn 0.000000 1.000000 0.000000
vn 0.000000 1.000000 0.000000
vn 0.000000 1.000000 0.000000
vn 0.000000 1.000000 0.000000
vn -1.000000 0.000000 0.000000
vn -1.000000 0.000000 0.000000
vn -1.000000 0.000000 0.000000
vn -1.000000 0.000000 0.000000
vn 0.000000 -1.000000 0.000000
vn 0.000000 -1.000000 0.000000
vn 0.000000 -1.000000 0.000000
vn 0.000000 -1.000000 0.000000
vn -1.000000 0.000000 0.000000
vn -1.000000 0.000000 0.000000
vn -1.000000 0.000000 0.000000
vn -1.000000 0.000000 0.000000
vn 0.000000 1.000000 0.000000
vn 0.000000 1.000000 0.000000
vn 0.000000 1.000000 0.000000
vn 0.000000 1.000000 0.000000
vn -1.000000 0.000000 0.000000
vn -1.000000 0.000000 0.000000
vn -1.000000 0.000000 0.000000
vn -1.000000 0.000000 0.000000
vn 0.000000 -1.000000 0.000000
vn 0.000000 -1.000000 0.000000
vn 0.000000 -1.000000 0.000000
vn 0.000000 -1.000000 0.000000
vn -1.000000 0.000000 0.000000
vn -1.000000 0.000000 0.000000
vn -1.000000 0.000000 0.000000
vn -1.000000 0.000000 0.000000
vn 0.000000 1.000000 0.000000
vn 0.000000 1.000000 0.000000
vn 0.000000 1.000000 0.000000
vn 0.000000 1.000000 0.000000
vn -1.000000 0.000000 0.000000
vn -1.000000 0.000000 0.000000
vn -1.000000 0.000000 0.000000
vn -1.000000 0.000000 0.000000
vn 0.000000 -1.000000 0.000000
vn 0.000000 -1.000000 0.000000
vn 0.000000 -1.000000 0.000000
vn 0.000000 -1.000000 0.000000
vn 1.000000 0.000000 0.000000
vn 1.000000 0.000000 0.000000
vn 1.000000 0.000000 0.000000
vn 1.000000 0.000000 0.000000
vn 0.000000 -1.000000 0.000000
vn 0.000000 -1.000000 0.000000
vn 0.000000 -1.000000 0.000000
vn 0.000000 -1.000000 0.000000
vn -1.000000 0.000000 0.000000
vn -1.000000 0.000000 0.000000
vn -1.000000 0.000000 0.000000
vn -1.000000 0.000000 0.000000
vn 0.000000 1.000000 0.000000
vn 0.000000 1.000000 0.000000
vn 0.000000 1.000000 0.000000
vn 0.000000 1.000000 0.000000
vn -1.000000 0.000000 0.000000
vn -1.000000 0.000000 0.000000
vn -1.000000 0.000000 0.000000
vn -1.000000 0.000000 0.000000
vn 0.000000 -1.000000 0.000000
vn 0.000000 -1.000000 0.000000
vn 0.000000 -1.000000 0.000000
vn 0.000000 -1.000000 0.000000
vn -1.000000 0.000000 0.000000
vn -1.000000 0.000000 0.000000
vn -1.000000 0.000000 0.000000
vn -1.000000 0.000000 0.000000
vn 0.000000 1.000000 0.000000
vn 0.000000 1.000000 0.000000
vn 0.000000 1.000000 0.000000
vn 0.000000 1.000000 0.000000
vn 1.000000 0.000000 0.000000
vn 1.000000 0.000000 0.000000
vn 1.000000 0.000000 0.000000
vn 1.000000 0.000000 0.000000
vn 0.000000 1.000000 0.000000
vn 0.000000 1.000000 0.000000
vn 0.000000 1.000000 0.000000
vn 0.000000 1.000000 0.000000
vn -1.000000 0.000000 0.000000
vn -1.000000 0.000000 0.000000
vn -1.000000 0.000000 0.000000
vn -1.000000 0.000000 0.000000
vn -0.000000 -1.000000 0.000000
vn -0.000000 -1.000000 0.000000
vn -0.000000 -1.000000 0.000000
vn -0.000000 -1.000000 0.000000
vn 1.000000 0.000000 0.000000
vn 1.000000 0.000000 0.000000
vn 1.000000 0.000000 0.000000
vn 1.000000 0.000000 0.000000
vn 0.000000 -1.000000 0.000000
vn 0.000000 -1.000000 0.000000
vn 0.000000 -1.000000 0.000000
vn 0.000000 -1.000000 0.000000
vn -1.000000 0.000000 0.000000
vn -1.000000 0.000000 0.000000
vn -1.000000 0.000000 0.000000
vn -1.000000 0.000000 0.000000
vn -0.000000 -1.000000 0.000000
vn -0.000000 -1.000000 0.000000
vn -0.000000 -1.000000 0.000000
vn -0.000000 -1.000000 0.000000
vn 1.000000 0.000000 0.000000
vn 1.000000 0.000000 0.000000
vn 1.000000 0.000000 0.000000
vn 1.000000 0.000000 0.000000
vn 0.000000 -1.000000 0.000000
vn 0.000000 -1.000000 0.000000
vn 0.000000 -1.000000 0.000000
vn 0.000000 -1.000000 0.000000
vn -1.000000 0.000000 0.000000
vn -1.000000 0.000000 0.000000
vn -1.000000 0.000000 0.000000
vn -1.000000 0.000000 0.000000
vn 0.000000 -1.000000 0.000000
vn 0.000000 -1.000000 0.000000
vn 0.000000 -1.000000 0.000000
vn 0.000000 -1.000000 0.000000
vn 1.000000 0.000000 0.000000
vn 1.000000 0.000000 0.000000
vn 1.000000 0.000000 0.000000
vn 1.000000 0.000000 0.000000
vn 0.000000 -1.000000 0.000000
vn 0.000000 -1.000000 0.000000
vn 0.000000 -1.000000 0.000000
vn 0.000000 -1.000000 0.000000
vn -1.000000 0.000000 0.000000
vn -1.000000 0.000000 0.000000
vn -1.000000 0.000000 0.000000
vn -1.000000 0.000000 0.000000
vn 0.000000 1.000000 0.000000
vn 0.000000 1.000000 0.000000
vn 0.000000 1.000000 0.000000
vn 0.000000 1.000000 0.000000
vn 0.000000 1.000000 0.000000
vn 0.000000 1.000000 0.000000
vn 0.000000 1.000000 0.000000
vn 0.000000 1.000000 0.000000
vn 0.000000 0.000000 1.000000
vn 0.000000 0.000000 1.000000
vn 0.000000 0.000000 1.000000
vn 0.000000 0.000000 1.000000
vn 0.000000 0.000000 1.000000
vn 0.000000 0.000000 1.000000
vn 0.000000 0.000000 1.000000
vn 0.000000 0.000000 1.000000
vn 0.000000 0.000000 1.000000
vn 0.000000 0.000000 1.000000
vn 0.000000 0.000000 1.000000
vn 0.000000 0.000000 1.000000
vn 0.000000 0.000000 1.000000
vn 0.000000 0.000000 1.000000
vn 0.000000 0.000000 1.000000
vn 0.000000 0.000000 1.000000
vn 0.000000 0.000000 1.000000
vn 0.000000 0.000000 1.000000
vn 0.000000 0.000000 1.000000
vn 0.000000 0.000000 1.000000
vn 0.000000 0.000000 1.000000
vn 0.000000 0.000000 1.000000
vn 0.000000 0.000000 1.000000
vn 0.000000 0.000000 1.000000
vn 0.000000 0.000000 1.000000
vn 0.000000 0.000000 1.000000
vn 0.000000 0.000000 1.000000
vn 0.000000 0.000000 1.000000
vn 0.000000 0.000000 1.000000
vn 0.000000 0.000000 1.000000
vn 0.000000 0.000000 1.000000
vn 0.000000 0.000000 1.000000
vn 0.000000 0.000000 1.000000
vn 0.000000 0.000000 1.000000
vn 0.000000 0.000000 1.000000
vn 0.000000 0.000000 1.000000
vn 0.000000 0.000000 1.000000
vn 0.000000 0.000000 1.000000
vn 0.000000 0.000000 1.000000
vn 0.000000 0.000000 1.000000
vn 0.000000 0.000000 1.000000
vn 0.000000 0.000000 1.000000
vn 0.000000 0.000000 1.000000
vn 0.000000 0.000000 1.000000
vn 0.000000 0.000000 1.000000
vn 0.000000 0.000000 1.000000
vn 0.000000 0.000000 1.000000
vn 0.000000 0.000000 1.000000
vn 0.000000 0.000000 1.000000
vn 0.000000 0.000000 1.000000
vn 0.000000 0.000000 1.000000
vn 0.000000 0.000000 1.000000
vn 0.000000 0.000000 1.000000
vn 0.000000 0.000000 1.000000
vn 0.000000 0.000000 1.000000
vn 0.000000 0.000000 1.000000
vn 0.000000 0.000000 1.000000
vn 0.000000 0.000000 1.000000
vn 0.000000 0.000000 1.000000
vn 0.000000 0.000000 1.000000
vn 0.000000 0.000000 1.000000
vn 0.000000 0.000000 1.000000
vn 0.000000 0.000000 1.000000
vn 0.000000 0.000000 1.000000
vn 0.000000 0.000000 1.000000
vn 0.000000 0.000000 1.000000
vn 0.000000 0.000000 1.000000
vn 0.000000 0.000000 1.000000
vn 0.000000 0.000000 1.000000
vn 0.000000 0.000000 1.000000
vn 0.000000 0.000000 1.000000
vn 0.000000 0.000000 1.000000
vn 0.000000 0.000000 1.000000
vn 0.000000 0.000000 1.000000
vn 0.000000 0.000000 1.000000
vn 0.000000 0.000000 1.000000
vn 0.000000 0.000000 1.000000
vn 0.000000 0.000000 1.000000
vn 0.000000 0.000000 1.000000
vn 0.000000 0.000000 1.000000
vn 0.000000 0.000000 1.000000
vn 0.000000 0.000000 1.000000
vn 0.000000 0.000000 1.000000
vn 0.000000 0.000000 1.000000
vn 0.000000 0.000000 1.000000
vn 0.000000 0.000000 1.000000
vn 0.000000 0.000000 1.000000
vn 0.000000 0.000000 1.000000
vn 0.000000 0.000000 1.000000
vn 0.000000 0.000000 1.000000
vn 0.000000 0.000000 1.000000
vn 0.000000 0.000000 1.000000
vn 0.000000 0.000000 1.000000
vn 0.000000 0.000000 1.000000
vn 0.000000 0.000000 1.000000
vn 0.000000 0.000000 1.000000
vn 0.000000 0.000000 1.000000
vn 0.000000 0.000000 1.000000
vn 0.000000 0.000000 1.000000
vn 0.000000 0.000000 1.000000
vn 0.000000 0.000000 1.000000
vn 0.000000 0.000000 1.000000
vn 0.000000 0.000000 1.000000
vn 0.000000 0.000000 1.000000
vn 0.000000 0.000000 1.000000
vn 0.000000 0.000000 1.000000
vn 0.000000 0.000000 1.000000
vn 0.000000 0.000000 1.000000
vn 0.000000 0.000000 1.000000
vn 0.000000 0.000000 1.000000
vn 0.000000 0.000000 1.000000
vn 0.000000 0.000000 1.000000
vn 0.000000 0.000000 1.000000
vn 0.000000 0.000000 1.000000
vn 0.000000 0.000000 1.000000
vn 0.000000 0.000000 1.000000
vn 0.000000 0.000000 1.000000
vn 0.000000 0.000000 1.000000
vn 0.000000 0.000000 1.000000
vn 0.000000 0.000000 1.000000
vn 0.000000 0.000000 1.000000
vn 0.000000 0.000000 1.000000
vn 0.000000 0.000000 1.000000
vn 0.000000 0.000000 1.000000
vn 0.000000 0.000000 1.000000
vn 0.000000 0.000000 1.000000
vn 0.000000 0.000000 1.000000
vn 0.000000 0.000000 1.000000
vn 0.000000 0.000000 1.000000
vn 0.000000 0.000000 1.000000
vn 0.000000 0.000000 1.000000
vn 0.000000 0.000000 1.000000
vn 0.000000 0.000000 1.000000
vn 0.000000 0.000000 1.000000
vn 0.000000 0.000000 1.000000
vn 0.000000 0.000000 1.000000
vn 0.000000 0.000000 1.000000
vn 0.000000 0.000000 1.000000
vn 0.000000 0.000000 1.000000
vn 0.000000 0.000000 1.000000
vn 0.000000 0.000000 1.000000
vn 0.000000 0.000000 1.000000
vn 0.000000 0.000000 1.000000
vn 0.000000 0.000000 1.000000
vn 0.000000 0.000000 1.000000
vn 0.000000 0.000000 1.000000
vn -0.000000 -0.000000 -1.000000
vn -0.000000 -0.000000 -1.000000
vn -0.000000 -0.000000 -1.000000
vn -0.000000 -0.000000 -1.000000
usemtl Steel_-_Satin
f 2/1/1 3/2/2 1/3/3
f 1/3/3 3/2/2 4/4/4
f 1/5/5 5/6/6 2/7/7
f 2/7/7 5/6/6 6/8/8
f 2/7/7 6/8/8 38/9/9
f 38/9/9 6/8/8 37/10/10
f 37/10/10 6/8/8 30/11/11
f 37/10/10 30/11/11 31/12/12
f 30/11/11 6/8/8 23/13/13
f 23/13/13 6/8/8 7/14/14
f 23/13/13 7/14/14 22/15/15
f 22/15/15 7/14/14 21/16/16
f 21/16/16 7/14/14 8/17/17
f 21/16/16 8/17/17 9/18/18
f 10/19/19 16/20/20 9/18/18
f 9/18/18 16/20/20 19/21/21
f 9/18/18 19/21/21 20/22/22
f 16/20/20 10/19/19 15/23/23
f 15/23/23 10/19/19 11/24/24
f 15/23/23 11/24/24 14/25/25
f 14/25/25 11/24/24 13/26/26
f 13/26/26 11/24/24 12/27/27
f 16/20/20 17/28/28 19/21/21
f 19/21/21 17/28/28 18/29/29
f 20/22/22 21/16/16 9/18/18
f 23/13/13 24/30/30 30/11/11
f 30/11/11 24/30/30 29/31/31
f 29/31/31 24/30/30 28/32/32
f 28/32/32 24/30/30 25/33/33
f 28/32/32 25/33/33 26/34/34
f 26/34/34 27/35/35 28/32/32
f 32/36/36 35/37/37 31/12/12
f 31/12/12 35/37/37 36/38/38
f 31/12/12 36/38/38 37/10/10
f 32/36/36 33/39/39 35/37/37
f 35/37/37 33/39/39 34/40/40
f 38/9/9 39/41/41 2/7/7
f 2/7/7 39/41/41 144/42/42
f 144/42/42 39/41/41 143/43/43
f 143/43/43 39/41/41 40/44/44
f 143/43/43 40/44/44 41/45/45
f 42/46/46 131/47/47 41/45/45
f 41/45/45 131/47/47 142/48/48
f 41/45/45 142/48/48 143/43/43
f 42/46/46 43/49/49 131/47/47
f 131/47/47 43/49/49 130/50/50
f 130/50/50 43/49/49 129/51/51
f 129/51/51 43/49/49 44/52/52
f 129/51/51 44/52/52 128/53/53
f 128/53/53 44/52/52 45/54/54
f 128/53/53 45/54/54 49/55/55
f 49/55/55 45/54/54 48/56/56
f 48/56/56 45/54/54 46/57/57
f 48/56/56 46/57/57 47/58/58
f 128/53/53 49/55/55 127/59/59
f 127/59/59 49/55/55 50/60/60
f 127/59/59 50/60/60 126/61/61
f 126/61/61 50/60/60 51/62/62
f 126/61/61 51/62/62 121/63/63
f 121/63/63 51/62/62 120/64/64
f 120/64/64 51/62/62 119/65/65
f 119/65/65 51/62/62 52/66/66
f 119/65/65 52/66/66 118/67/67
f 118/67/67 52/66/66 53/68/68
f 118/67/67 53/68/68 117/69/69
f 117/69/69 53/68/68 54/70/70
f 117/69/69 54/70/70 110/71/71
f 110/71/71 54/70/70 109/72/72
f 109/72/72 54/70/70 55/73/73
f 109/72/72 55/73/73 108/74/74
f 108/74/74 55/73/73 62/75/75
f 108/74/74 62/75/75 63/76/76
f 62/75/75 55/73/73 61/77/77
f 61/77/77 55/73/73 56/78/78
f 61/77/77 56/78/78 57/79/79
f 61/77/77 57/79/79 60/80/80
f 60/80/80 57/79/79 58/81/81
f 60/80/80 58/81/81 59/82/82
f 63/76/76 64/83/83 108/74/74
f 108/74/74 64/83/83 107/84/84
f 107/84/84 64/83/83 65/85/85
f 107/84/84 65/85/85 104/86/86
f 104/86/86 65/85/85 103/87/87
f 103/87/87 65/85/85 66/88/88
f 103/87/87 66/88/88 67/89/89
f 103/87/87 67/89/89 102/90/90
f 102/90/90 67/89/89 68/91/91
f 102/90/90 68/91/91 101/92/92
f 101/92/92 68/91/91 100/93/93
f 100/93/93 68/91/91 69/94/94
f 100/93/93 69/94/94 99/95/95
f 99/95/95 69/94/94 70/96/96
f 99/95/95 70/96/96 71/97/97
f 99/95/95 71/97/97 98/98/98
f 98/98/98 71/97/97 72/99/99
f 98/98/98 72/99/99 97/100/100
f 97/100/100 72/99/99 73/101/101
f 97/100/100 73/101/101 96/102/102
f 96/102/102 73/101/101 95/103/103
f 95/103/103 73/101/101 74/104/104
f 95/103/103 74/104/104 75/105/105
f 76/106/106 90/107/107 75/105/105
f 75/105/105 90/107/107 93/108/108
f 75/105/105 93/108/108 94/109/109
f 90/107/107 76/106/106 89/110/110
f 89/110/110 76/106/106 77/111/111
f 89/110/110 77/111/111 88/112/112
f 88/112/112 77/111/111 87/113/113
f 87/113/113 77/111/111 78/114/114
f 87/113/113 78/114/114 79/115/115
f 80/116/116 85/117/117 79/115/115
f 79/115/115 85/117/117 86/118/118
f 79/115/115 86/118/118 87/113/113
f 81/119/119 82/120/120 80/116/116
f 80/116/116 82/120/120 83/121/121
f 80/116/116 83/121/121 85/117/117
f 85/117/117 83/121/121 84/122/122
f 90/107/107 91/123/123 93/108/108
f 93/108/108 91/123/123 92/124/124
f 94/109/109 95/103/103 75/105/105
f 105/125/125 106/126/126 104/86/86
f 104/86/86 106/126/126 107/84/84
f 110/71/71 111/127/127 117/69/69
f 117/69/69 111/127/127 116/128/128
f 116/128/128 111/127/127 115/129/129
f 115/129/129 111/127/127 112/130/130
f 115/129/129 112/130/130 114/131/131
f 114/131/131 112/130/130 113/132/132
f 121/63/63 122/133/133 126/61/61
f 126/61/61 122/133/133 125/134/134
f 125/134/134 122/133/133 124/135/135
f 124/135/135 122/133/133 123/136/136
f 131/47/47 132/137/137 142/48/48
f 142/48/48 132/137/137 141/138/138
f 141/138/138 132/137/137 133/139/139
f 141/138/138 133/139/139 140/140/140
f 140/140/140 133/139/139 139/141/141
f 139/141/141 133/139/139 134/142/142
f 139/141/141 134/142/142 135/143/143
f 139/141/141 135/143/143 138/144/144
f 138/144/144 135/143/143 136/145/145
f 138/144/144 136/145/145 137/146/146
f 6/147/147 5/148/148 146/149/149
f 146/149/149 5/148/148 145/150/150
f 7/151/151 6/152/152 147/153/153
f 147/153/153 6/152/152 146/154/154
f 8/155/155 7/156/156 148/157/157
f 148/157/157 7/156/156 147/158/158
f 9/159/159 8/160/160 149/161/161
f 149/161/161 8/160/160 148/162/162
f 10/163/163 9/164/164 150/165/165
f 150/165/165 9/164/164 149/166/166
f 11/167/167 10/168/168 151/169/169
f 151/169/169 10/168/168 150/170/170
f 12/171/171 11/172/172 152/173/173
f 152/173/173 11/172/172 151/174/174
f 13/175/175 12/176/176 153/177/177
f 153/177/177 12/176/176 152/178/178
f 14/179/179 13/180/180 154/181/181
f 154/181/181 13/180/180 153/182/182
f 15/183/183 14/184/184 155/185/185
f 155/185/185 14/184/184 154/186/186
f 16/187/187 15/188/188 156/189/189
f 156/189/189 15/188/188 155/190/190
f 17/191/191 16/192/192 157/193/193
f 157/193/193 16/192/192 156/194/194
f 18/195/195 17/196/196 158/197/197
f 158/197/197 17/196/196 157/198/198
f 19/199/199 18/200/200 159/201/201
f 159/201/201 18/200/200 158/202/202
f 20/203/203 19/204/204 160/205/205
f 160/205/205 19/204/204 159/206/206
f 21/207/207 20/208/208 161/209/209
f 161/209/209 20/208/208 160/210/210
f 22/211/211 21/212/212 162/213/213
f 162/213/213 21/212/212 161/214/214
f 23/215/215 22/216/216 163/217/217
f 163/217/217 22/216/216 162/218/218
f 24/219/219 23/220/220 164/221/221
f 164/221/221 23/220/220 163/222/222
f 25/223/223 24/224/224 165/225/225
f 165/225/225 24/224/224 164/226/226
f 26/227/227 25/228/228 166/229/229
f 166/229/229 25/228/228 165/230/230
f 27/231/231 26/232/232 167/233/233
f 167/233/233 26/232/232 166/234/234
f 28/235/235 27/236/236 168/237/237
f 168/237/237 27/236/236 167/238/238
f 29/239/239 28/240/240 169/241/241
f 169/241/241 28/240/240 168/242/242
f 30/243/243 29/244/244 170/245/245
f 170/245/245 29/244/244 169/246/246
f 31/247/247 30/248/248 171/249/249
f 171/249/249 30/248/248 170/250/250
f 32/251/251 31/252/252 172/253/253
f 172/253/253 31/252/252 171/254/254
f 33/255/255 32/256/256 173/257/257
f 173/257/257 32/256/256 172/258/258
f 34/259/259 33/260/260 174/261/261
f 174/261/261 33/260/260 173/262/262
f 35/263/263 34/264/264 175/265/265
f 175/265/265 34/264/264 174/266/266
f 36/267/267 35/268/268 176/269/269
f 176/269/269 35/268/268 175/270/270
f 37/271/271 36/272/272 177/273/273
f 177/273/273 36/272/272 176/274/274
f 38/275/275 37/276/276 178/277/277
f 178/277/277 37/276/276 177/278/278
f 39/279/279 38/280/280 179/281/281
f 179/281/281 38/280/280 178/282/282
f 40/283/283 39/284/284 180/285/285
f 180/285/285 39/284/284 179/286/286
f 41/287/287 40/288/288 181/289/289
f 181/289/289 40/288/288 180/290/290
f 42/291/291 41/292/292 182/293/293
f 182/293/293 41/292/292 181/294/294
f 43/295/295 42/296/296 183/297/297
f 183/297/297 42/296/296 182/298/298
f 44/299/299 43/300/300 184/301/301
f 184/301/301 43/300/300 183/302/302
f 45/303/303 44/304/304 185/305/305
f 185/305/305 44/304/304 184/306/306
f 46/307/307 45/308/308 186/309/309
f 186/309/309 45/308/308 185/310/310
f 47/311/311 46/312/312 187/313/313
f 187/313/313 46/312/312 186/314/314
f 48/315/315 47/316/316 188/317/317
f 188/317/317 47/316/316 187/318/318
f 49/319/319 48/320/320 189/321/321
f 189/321/321 48/320/320 188/322/322
f 50/323/323 49/324/324 190/325/325
f 190/325/325 49/324/324 189/326/326
f 51/327/327 50/328/328 191/329/329
f 191/329/329 50/328/328 190/330/330
f 52/331/331 51/332/332 192/333/333
f 192/333/333 51/332/332 191/334/334
f 53/335/335 52/336/336 193/337/337
f 193/337/337 52/336/336 192/338/338
f 54/339/339 53/340/340 194/341/341
f 194/341/341 53/340/340 193/342/342
f 55/343/343 54/344/344 195/345/345
f 195/345/345 54/344/344 194/346/346
f 56/347/347 55/348/348 196/349/349
f 196/349/349 55/348/348 195/350/350
f 57/351/351 56/352/352 197/353/353
f 197/353/353 56/352/352 196/354/354
f 58/355/355 57/356/356 198/357/357
f 198/357/357 57/356/356 197/358/358
f 59/359/359 58/360/360 199/361/361
f 199/361/361 58/360/360 198/362/362
f 60/363/363 59/364/364 200/365/365
f 200/365/365 59/364/364 199/366/366
f 61/367/367 60/368/368 201/369/369
f 201/369/369 60/368/368 200/370/370
f 62/371/371 61/372/372 202/373/373
f 202/373/373 61/372/372 201/374/374
f 63/375/375 62/376/376 203/377/377
f 203/377/377 62/376/376 202/378/378
f 64/379/379 63/380/380 204/381/381
f 204/381/381 63/380/380 203/382/382
f 65/383/383 64/384/384 205/385/385
f 205/385/385 64/384/384 204/386/386
f 66/387/387 65/388/388 206/389/389
f 206/389/389 65/388/388 205/390/390
f 67/391/391 66/392/392 207/393/393
f 207/393/393 66/392/392 206/394/394
f 68/395/395 67/396/396 208/397/397
f 208/397/397 67/396/396 207/398/398
f 69/399/399 68/400/400 209/401/401
f 209/401/401 68/400/400 208/402/402
f 70/403/403 69/404/404 210/405/405
f 210/405/405 69/404/404 209/406/406
f 71/407/407 70/408/408 211/409/409
f 211/409/409 70/408/408 210/410/410
f 72/411/411 71/412/412 212/413/413
f 212/413/413 71/412/412 211/414/414
f 73/415/415 72/416/416 213/417/417
f 213/417/417 72/416/416 212/418/418
f 74/419/419 73/420/420 214/421/421
f 214/421/421 73/420/420 213/422/422
f 75/423/423 74/424/424 215/425/425
f 215/425/425 74/424/424 214/426/426
f 76/427/427 75/428/428 216/429/429
f 216/429/429 75/428/428 215/430/430
f 77/431/431 76/432/432 217/433/433
f 217/433/433 76/432/432 216/434/434
f 78/435/435 77/436/436 218/437/437
f 218/437/437 77/436/436 217/438/438
f 79/439/439 78/440/440 219/441/441
f 219/441/441 78/440/440 218/442/442
f 80/443/443 79/444/444 220/445/445
f 220/445/445 79/444/444 219/446/446
f 81/447/447 80/448/448 221/449/449
f 221/449/449 80/448/448 220/450/450
f 82/451/451 81/452/452 222/453/453
f 222/453/453 81/452/452 221/454/454
f 83/455/455 82/456/456 223/457/457
f 223/457/457 82/456/456 222/458/458
f 84/459/459 83/460/460 224/461/461
f 224/461/461 83/460/460 223/462/462
f 85/463/463 84/464/464 225/465/465
f 225/465/465 84/464/464 224/466/466
f 86/467/467 85/468/468 226/469/469
f 226/469/469 85/468/468 225/470/470
f 87/471/471 86/472/472 227/473/473
f 227/473/473 86/472/472 226/474/474
f 88/475/475 87/476/476 228/477/477
f 228/477/477 87/476/476 227/478/478
f 89/479/479 88/480/480 229/481/481
f 229/481/481 88/480/480 228/482/482
f 90/483/483 89/484/484 230/485/485
f 230/485/485 89/484/484 229/486/486
f 91/487/487 90/488/488 231/489/489
f 231/489/489 90/488/488 230/490/490
f 92/491/491 91/492/492 232/493/493
f 232/493/493 91/492/492 231/494/494
f 93/495/495 92/496/496 233/497/497
f 233/497/497 92/496/496 232/498/498
f 94/499/499 93/500/500 234/501/501
f 234/501/501 93/500/500 233/502/502
f 95/503/503 94/504/504 235/505/505
f 235/505/505 94/504/504 234/506/506
f 96/507/507 95/508/508 236/509/509
f 236/509/509 95/508/508 235/510/510
f 97/511/511 96/512/512 237/513/513
f 237/513/513 96/512/512 236/514/514
f 98/515/515 97/516/516 238/517/517
f 238/517/517 97/516/516 237/518/518
f 99/519/519 98/520/520 239/521/521
f 239/521/521 98/520/520 238/522/522
f 100/523/523 99/524/524 240/525/525
f 240/525/525 99/524/524 239/526/526
f 101/527/527 100/528/528 241/529/529
f 241/529/529 100/528/528 240/530/530
f 102/531/531 101/532/532 242/533/533
f 242/533/533 101/532/532 241/534/534
f 103/535/535 102/536/536 243/537/537
f 243/537/537 102/536/536 242/538/538
f 104/539/539 103/540/540 244/541/541
f 244/541/541 103/540/540 243/542/542
f 105/543/543 104/544/544 245/545/545
f 245/545/545 104/544/544 244/546/546
f 106/547/547 105/548/548 246/549/549
f 246/549/549 105/548/548 245/550/550
f 107/551/551 106/552/552 247/553/553
f 247/553/553 106/552/552 246/554/554
f 108/555/555 107/556/556 248/557/557
f 248/557/557 107/556/556 247/558/558
f 109/559/559 108/560/560 249/561/561
f 249/561/561 108/560/560 248/562/562
f 110/563/563 109/564/564 250/565/565
f 250/565/565 109/564/564 249/566/566
f 111/567/567 110/568/568 251/569/569
f 251/569/569 110/568/568 250/570/570
f 112/571/571 111/572/572 252/573/573
f 252/573/573 111/572/572 251/574/574
f 113/575/575 112/576/576 253/577/577
f 253/577/577 112/576/576 252/578/578
f 114/579/579 113/580/580 254/581/581
f 254/581/581 113/580/580 253/582/582
f 115/583/583 114/584/584 255/585/585
f 255/585/585 114/584/584 254/586/586
f 116/587/587 115/588/588 256/589/589
f 256/589/589 115/588/588 255/590/590
f 117/591/591 116/592/592 257/593/593
f 257/593/593 116/592/592 256/594/594
f 118/595/595 117/596/596 258/597/597
f 258/597/597 117/596/596 257/598/598
f 119/599/599 118/600/600 259/601/601
f 259/601/601 118/600/600 258/602/602
f 120/603/603 119/604/604 260/605/605
f 260/605/605 119/604/604 259/606/606
f 121/607/607 120/608/608 261/609/609
f 261/609/609 120/608/608 260/610/610
f 122/611/611 121/612/612 262/613/613
f 262/613/613 121/612/612 261/614/614
f 123/615/615 122/616/616 263/617/617
f 263/617/617 122/616/616 262/618/618
f 124/619/619 123/620/620 264/621/621
f 264/621/621 123/620/620 263/622/622
f 125/623/623 124/624/624 265/625/625
f 265/625/625 124/624/624 264/626/626
f 126/627/627 125/628/628 266/629/629
f 266/629/629 125/628/628 265/630/630
f 127/631/631 126/632/632 267/633/633
f 267/633/633 126/632/632 266/634/634
f 128/635/635 127/636/636 268/637/637
f 268/637/637 127/636/636 267/638/638
f 129/639/639 128/640/640 269/641/641
f 269/641/641 128/640/640 268/642/642
f 130/643/643 129/644/644 270/645/645
f 270/645/645 129/644/644 269/646/646
f 131/647/647 130/648/648 271/649/649
f 271/649/649 130/648/648 270/650/650
f 132/651/651 131/652/652 272/653/653
f 272/653/653 131/652/652 271/654/654
f 133/655/655 132/656/656 273/657/657
f 273/657/657 132/656/656 272/658/658
f 134/659/659 133/660/660 274/661/661
f 274/661/661 133/660/660 273/662/662
f 135/663/663 134/664/664 275/665/665
f 275/665/665 134/664/664 274/666/666
f 136/667/667 135/668/668 276/669/669
f 276/669/669 135/668/668 275/670/670
f 137/671/671 136/672/672 277/673/673
f 277/673/673 136/672/672 276/674/674
f 138/675/675 137/676/676 278/677/677
f 278/677/677 137/676/676 277/678/678
f 139/679/679 138/680/680 279/681/681
f 279/681/681 138/680/680 278/682/682
f 140/683/683 139/684/684 280/685/685
f 280/685/685 139/684/684 279/686/686
f 141/687/687 140/688/688 281/689/689
f 281/689/689 140/688/688 280/690/690
f 142/691/691 141/692/692 282/693/693
f 282/693/693 141/692/692 281/694/694
f 143/695/695 142/696/696 283/697/697
f 283/697/697 142/696/696 282/698/698
f 144/699/699 143/700/700 284/701/701
f 284/701/701 143/700/700 283/702/702
f 2/703/703 144/704/704 3/705/705
f 3/705/705 144/704/704 284/706/706
f 285/707/707 286/708/708 288/709/709
f 288/709/709 286/708/708 287/710/710
f 289/711/711 285/712/712 290/713/713
f 290/713/713 285/712/712 288/714/714
f 291/715/715 289/716/716 292/717/717
f 292/717/717 289/716/716 290/718/718
f 287/719/719 286/720/720 1/721/721
f 1/721/721 286/720/720 291/722/722
f 1/721/721 291/722/722 5/723/723
f 5/723/723 291/722/722 292/724/724
f 5/723/723 292/724/724 145/725/725
f 1/721/721 4/726/726 287/719/719
f 292/727/727 149/728/728 145/729/729
f 145/729/729 149/728/728 148/730/730
f 145/729/729 148/730/730 146/731/731
f 146/731/731 148/730/730 147/732/732
f 290/733/733 237/734/734 292/727/727
f 292/727/727 237/734/734 154/735/735
f 292/727/727 154/735/735 153/736/736
f 288/737/737 247/738/738 290/733/733
f 290/733/733 247/738/738 246/739/739
f 290/733/733 246/739/739 245/740/740
f 287/741/741 263/742/742 288/737/737
f 288/737/737 263/742/742 260/743/743
f 288/737/737 260/743/743 259/744/744
f 4/745/745 281/746/746 287/741/741
f 287/741/741 281/746/746 280/747/747
f 287/741/741 280/747/747 277/748/748
f 277/748/748 280/747/747 278/749/749
f 278/749/749 280/747/747 279/750/750
f 3/751/751 284/752/752 4/745/745
f 4/745/745 284/752/752 281/746/746
f 283/753/753 282/754/754 284/752/752
f 284/752/752 282/754/754 281/746/746
f 277/748/748 276/755/755 287/741/741
f 287/741/741 276/755/755 275/756/756
f 287/741/741 275/756/756 270/757/757
f 270/757/757 275/756/756 274/758/758
f 270/757/757 274/758/758 271/759/759
f 271/759/759 274/758/758 272/760/760
f 272/760/760 274/758/758 273/761/761
f 270/757/757 269/762/762 287/741/741
f 287/741/741 269/762/762 264/763/763
f 287/741/741 264/763/763 263/742/742
f 264/763/763 269/762/762 265/764/764
f 265/764/764 269/762/762 268/765/765
f 265/764/764 268/765/765 267/766/766
f 267/766/766 266/767/767 265/764/764
f 263/742/742 262/768/768 260/743/743
f 260/743/743 262/768/768 261/769/769
f 288/737/737 259/744/744 256/770/770
f 256/770/770 259/744/744 258/771/771
f 256/770/770 258/771/771 257/772/772
f 256/770/770 255/773/773 288/737/737
f 288/737/737 255/773/773 254/774/774
f 288/737/737 254/774/774 247/738/738
f 247/738/738 254/774/774 253/775/775
f 247/738/738 253/775/775 248/776/776
f 248/776/776 253/775/775 249/777/777
f 249/777/777 253/775/775 252/778/778
f 249/777/777 252/778/778 251/779/779
f 251/779/779 250/780/780 249/777/777
f 290/733/733 245/740/740 242/781/781
f 242/781/781 245/740/740 244/782/782
f 242/781/781 244/782/782 243/783/783
f 242/781/781 241/784/784 290/733/733
f 290/733/733 241/784/784 238/785/785
f 290/733/733 238/785/785 237/734/734
f 241/784/784 240/786/786 238/785/785
f 238/785/785 240/786/786 239/787/787
f 237/734/734 236/788/788 154/735/735
f 154/735/735 236/788/788 155/789/789
f 155/789/789 236/788/788 166/790/790
f 155/789/789 166/790/790 165/791/791
f 236/788/788 235/792/792 166/790/790
f 166/790/790 235/792/792 234/793/793
f 166/790/790 234/793/793 167/794/794
f 167/794/794 234/793/793 224/795/795
f 167/794/794 224/795/795 223/796/796
f 234/793/793 233/797/797 224/795/795
f 224/795/795 233/797/797 232/798/798
f 224/795/795 232/798/798 225/799/799
f 225/799/799 232/798/798 226/800/800
f 226/800/800 232/798/798 231/801/801
f 226/800/800 231/801/801 228/802/802
f 228/802/802 231/801/801 229/803/803
f 229/803/803 231/801/801 230/804/804
f 228/802/802 227/805/805 226/800/800
f 222/806/806 169/807/807 223/796/796
f 223/796/796 169/807/807 168/808/808
f 223/796/796 168/808/808 167/794/794
f 221/809/809 186/810/810 222/806/806
f 222/806/806 186/810/810 185/811/811
f 222/806/806 185/811/811 172/812/812
f 172/812/812 185/811/811 173/813/813
f 173/813/813 185/811/811 182/814/814
f 173/813/813 182/814/814 174/815/815
f 174/815/815 182/814/814 181/816/816
f 174/815/815 181/816/816 180/817/817
f 220/818/818 218/819/819 221/809/809
f 221/809/809 218/819/819 197/820/820
f 221/809/809 197/820/820 186/810/810
f 186/810/810 197/820/820 187/821/821
f 187/821/821 197/820/820 196/822/822
f 187/821/821 196/822/822 190/823/823
f 190/823/823 196/822/822 193/824/824
f 190/823/823 193/824/824 191/825/825
f 191/825/825 193/824/824 192/826/826
f 220/818/818 219/827/827 218/819/819
f 197/820/820 218/819/819 198/828/828
f 198/828/828 218/819/819 217/829/829
f 198/828/828 217/829/829 203/830/830
f 203/830/830 217/829/829 206/831/831
f 203/830/830 206/831/831 204/832/832
f 204/832/832 206/831/831 205/833/833
f 217/829/829 216/834/834 206/831/831
f 206/831/831 216/834/834 207/835/835
f 207/835/835 216/834/834 209/836/836
f 207/835/835 209/836/836 208/837/837
f 209/836/836 216/834/834 210/838/838
f 210/838/838 216/834/834 215/839/839
f 210/838/838 215/839/839 214/840/840
f 213/841/841 212/842/842 214/840/840
f 214/840/840 212/842/842 211/843/843
f 214/840/840 211/843/843 210/838/838
f 198/828/828 203/830/830 199/844/844
f 199/844/844 203/830/830 202/845/845
f 199/844/844 202/845/845 201/846/846
f 201/846/846 200/847/847 199/844/844
f 195/848/848 194/849/849 196/822/822
f 196/822/822 194/849/849 193/824/824
f 189/850/850 188/851/851 190/823/823
f 190/823/823 188/851/851 187/821/821
f 185/811/811 184/852/852 182/814/814
f 182/814/814 184/852/852 183/853/853
f 179/854/854 176/855/855 180/817/817
f 180/817/817 176/855/855 175/856/856
f 180/817/817 175/856/856 174/815/815
f 179/854/854 178/857/857 176/855/855
f 176/855/855 178/857/857 177/858/858
f 171/859/859 170/860/860 172/812/812
f 172/812/812 170/860/860 169/807/807
f 172/812/812 169/807/807 222/806/806
f 164/861/861 162/862/862 165/791/791
f 165/791/791 162/862/862 157/863/863
f 165/791/791 157/863/863 156/864/864
f 164/861/861 163/865/865 162/862/862
f 157/863/863 162/862/862 158/866/866
f 158/866/866 162/862/862 161/867/867
f 158/866/866 161/867/867 160/868/868
f 160/868/868 159/869/869 158/866/866
f 156/864/864 155/789/789 165/791/791
f 153/736/736 152/870/870 292/727/727
f 292/727/727 152/870/870 149/728/728
f 151/871/871 150/872/872 152/870/870
f 152/870/870 150/872/872 149/728/728
f 291/873/873 286/874/874 289/875/875
f 289/875/875 286/874/874 285/876/876
# 292 vertices
# 876 texture params
# 876 normals
# 580 facets

# 1 groups
